<svg width="52" height="10" viewBox="0 0 52 10" fill="none" xmlns="http://www.w3.org/2000/svg"><path d="M4.32904 9.22997C3.41904 9.22997 2.63904 9.06964 1.98904 8.74897C1.34771 8.42831 0.853706 7.92997 0.507039 7.25397C0.169039 6.56931 3.90857e-05 5.68964 3.90857e-05 4.61497C3.90857e-05 3.04631 0.381372 1.88497 1.14404 1.13097C1.90671 0.376974 2.96837 -2.55704e-05 4.32904 -2.55704e-05C5.06571 -2.55704e-05 5.72871 0.125641 6.31804 0.376974C6.91604 0.628307 7.38837 1.00964 7.73504 1.52097C8.09037 2.02364 8.26804 2.66497 8.26804 3.44497H6.53904C6.53904 3.01164 6.44371 2.64764 6.25304 2.35297C6.07104 2.04964 5.81537 1.81997 5.48604 1.66397C5.15671 1.50797 4.77971 1.42997 4.35504 1.42997C3.76571 1.42997 3.27604 1.54697 2.88604 1.78097C2.49604 2.00631 2.20571 2.34431 2.01504 2.79497C1.83304 3.24564 1.74204 3.80464 1.74204 4.47197V4.75797C1.74204 5.43397 1.83304 5.99731 2.01504 6.44797C2.20571 6.89864 2.49171 7.23664 2.87304 7.46197C3.26304 7.68731 3.75704 7.79997 4.35504 7.79997C4.80571 7.79997 5.20004 7.72631 5.53804 7.57897C5.87604 7.42297 6.13604 7.19764 6.31804 6.90297C6.50871 6.59964 6.60404 6.23131 6.60404 5.79797H8.26804C8.26804 6.57797 8.09471 7.22364 7.74804 7.73497C7.40137 8.23764 6.92904 8.61464 6.33104 8.86597C5.74171 9.10864 5.07437 9.22997 4.32904 9.22997ZM8.84918 9.07397L12.3202 0.155974H14.4522L17.9362 9.07397H16.1032L15.3882 7.17597H11.3062L10.5912 9.07397H8.84918ZM11.8392 5.74597H14.8422L13.9452 3.32797C13.9105 3.24131 13.8672 3.13297 13.8152 3.00297C13.7718 2.86431 13.7242 2.71697 13.6722 2.56097C13.6202 2.39631 13.5682 2.23164 13.5162 2.06697C13.4642 1.90231 13.4165 1.75497 13.3732 1.62497H13.3082C13.2562 1.79831 13.1912 1.99764 13.1132 2.22297C13.0438 2.44831 12.9745 2.66064 12.9052 2.85997C12.8358 3.05931 12.7795 3.21531 12.7362 3.32797L11.8392 5.74597ZM18.989 9.07397V0.155974H23.682C24.3406 0.155974 24.8866 0.268641 25.32 0.493974C25.7533 0.719308 26.0783 1.03997 26.295 1.45597C26.5116 1.87197 26.62 2.36164 26.62 2.92497C26.62 3.50564 26.49 4.02131 26.23 4.47197C25.97 4.91397 25.5886 5.24764 25.086 5.47297L26.932 9.07397H25.086L23.448 5.75897H20.679V9.07397H18.989ZM20.679 4.34197H23.552C23.9853 4.34197 24.319 4.21631 24.553 3.96497C24.787 3.71364 24.904 3.36697 24.904 2.92497C24.904 2.63897 24.852 2.40064 24.748 2.20997C24.644 2.01064 24.4923 1.85897 24.293 1.75497C24.0936 1.65097 23.8466 1.59897 23.552 1.59897H20.679V4.34197ZM30.2374 9.07397V1.61197H27.3904V0.155974H34.7874V1.61197H31.9274V9.07397H30.2374ZM39.4303 9.22997C38.9363 9.22997 38.4639 9.17797 38.0133 9.07397C37.5626 8.96131 37.1639 8.79231 36.8173 8.56697C36.4706 8.33297 36.1976 8.04697 35.9983 7.70897C35.7989 7.36231 35.6993 6.95497 35.6993 6.48697C35.6993 6.43497 35.6993 6.38297 35.6993 6.33097C35.7079 6.27897 35.7123 6.23997 35.7123 6.21397H37.4153C37.4153 6.23131 37.4109 6.26597 37.4023 6.31797C37.4023 6.36131 37.4023 6.40031 37.4023 6.43497C37.4023 6.72097 37.4846 6.96797 37.6493 7.17597C37.8139 7.37531 38.0523 7.53131 38.3643 7.64397C38.6763 7.74797 39.0446 7.79997 39.4693 7.79997C39.7553 7.79997 40.0066 7.78264 40.2233 7.74797C40.4486 7.71331 40.6393 7.66564 40.7953 7.60497C40.9599 7.53564 41.0943 7.45764 41.1983 7.37097C41.3023 7.27564 41.3759 7.17164 41.4193 7.05897C41.4713 6.94631 41.4973 6.82497 41.4973 6.69497C41.4973 6.44364 41.4193 6.23564 41.2633 6.07097C41.1073 5.90631 40.8949 5.76764 40.6263 5.65497C40.3663 5.54231 40.0673 5.44264 39.7293 5.35597C39.3999 5.26064 39.0576 5.16531 38.7023 5.06997C38.3556 4.97464 38.0133 4.86197 37.6753 4.73197C37.3459 4.59331 37.0469 4.42864 36.7783 4.23797C36.5183 4.04731 36.3103 3.80897 36.1543 3.52297C35.9983 3.22831 35.9203 2.87731 35.9203 2.46997C35.9203 2.05397 36.0069 1.68997 36.1803 1.37797C36.3623 1.06597 36.6136 0.810308 36.9343 0.610974C37.2636 0.402974 37.6449 0.251308 38.0783 0.155974C38.5116 0.0519743 38.9839 -2.55704e-05 39.4953 -2.55704e-05C39.9719 -2.55704e-05 40.4183 0.0519743 40.8343 0.155974C41.2589 0.251308 41.6316 0.407308 41.9523 0.623974C42.2729 0.831974 42.5243 1.10064 42.7063 1.42997C42.8883 1.75064 42.9793 2.13631 42.9793 2.58697V2.74297H41.3023V2.61297C41.3023 2.36164 41.2243 2.14931 41.0683 1.97597C40.9209 1.80264 40.7086 1.66831 40.4313 1.57297C40.1626 1.47764 39.8463 1.42997 39.4823 1.42997C39.0923 1.42997 38.7586 1.46897 38.4813 1.54697C38.2039 1.61631 37.9916 1.72464 37.8443 1.87197C37.6969 2.01064 37.6233 2.18397 37.6233 2.39197C37.6233 2.60864 37.7013 2.79064 37.8573 2.93797C38.0133 3.08531 38.2213 3.21097 38.4813 3.31497C38.7499 3.41897 39.0489 3.51431 39.3783 3.60097C39.7163 3.68764 40.0586 3.78297 40.4053 3.88697C40.7606 3.98231 41.1029 4.09497 41.4323 4.22497C41.7703 4.35497 42.0693 4.51964 42.3293 4.71897C42.5979 4.90964 42.8103 5.14797 42.9663 5.43397C43.1223 5.71997 43.2003 6.06231 43.2003 6.46097C43.2003 7.12831 43.0356 7.66564 42.7063 8.07297C42.3856 8.48031 41.9393 8.77497 41.3673 8.95697C40.8039 9.13897 40.1583 9.22997 39.4303 9.22997ZM46.8266 9.07397V5.44697L43.3946 0.155974H45.3446L47.6976 3.92597H47.7626L50.0896 0.155974H51.9356L48.5166 5.44697V9.07397H46.8266Z" fill="#FF6118"></path></svg>