<svg width="30" height="10" viewBox="0 0 30 10" fill="none" xmlns="http://www.w3.org/2000/svg"><path d="M15.4523 1.82111C15.4523 1.36714 15.8348 0.998169 16.2849 0.998169C16.735 0.998169 17.1175 1.36907 17.1175 1.82111C17.1175 2.27315 16.7485 2.65371 16.2849 2.65371C15.8212 2.65371 15.4523 2.28474 15.4523 1.82111Z" fill="#061B31"></path><path d="M12.9815 1.11407L14.4303 1.11407L14.4303 9.22756L12.9815 9.22756L12.9815 1.11407Z" fill="#061B31"></path><path d="M17.017 3.43221L15.5566 3.43221L15.5566 9.22755L17.017 9.22755L17.017 3.43221Z" fill="#061B31"></path><path d="M27.5162 6.13285C28.6154 5.45673 29.363 4.45027 29.6586 3.43029L28.1982 3.43029C27.8176 4.40391 26.9444 5.13605 25.9843 5.44707L25.9843 1.11215L24.5239 1.11215L24.5239 9.22563L25.9843 9.22563L25.9843 6.81283C27.099 7.091 27.9799 8.05497 28.2812 9.22563L29.7513 9.22563C29.5272 7.99702 28.6869 6.84761 27.5162 6.13285Z" fill="#061B31"></path><path d="M19.6056 4.0813C19.9881 3.57324 20.7337 3.27767 21.3384 3.27767C22.4665 3.27767 23.3996 4.10255 23.4015 5.34855L23.4015 9.22563L21.9411 9.22563L21.9411 5.67115C21.9411 5.15923 21.7132 4.5681 20.9733 4.5681C20.104 4.5681 19.6036 5.33889 19.6036 6.24103L19.6036 9.22949L18.1432 9.22949L18.1432 3.43608L19.6056 3.43608L19.6056 4.0813Z" fill="#061B31"></path><path d="M5.74504 10.0002C8.41228 10.0002 10.5745 7.83799 10.5745 5.17076C10.5745 2.50352 8.41228 0.341309 5.74504 0.341309C3.07781 0.341309 0.915588 2.50352 0.915588 5.17076C0.915588 7.83799 3.07781 10.0002 5.74504 10.0002Z" fill="#061B31"></path><path d="M5.52284 2.27307L4.03345 2.27307C4.32321 3.4843 5.16933 4.51973 6.22795 5.17074C5.1674 5.82175 4.32321 6.85718 4.03345 8.06841L5.52284 8.06841C5.89181 6.94798 6.91373 5.97436 8.16939 5.77539L8.16939 4.56416C6.9118 4.36712 5.88988 3.3935 5.52284 2.27307Z" fill="white"></path></svg>