<svg width="35" height="21" viewBox="0 0 35 21" fill="none" xmlns="http://www.w3.org/2000/svg"><path d="M12.6407 20.4617C8.5959 20.1064 5.02672 18.6026 2.70209 16.2745C1.37766 14.9481 0.574218 13.5093 0.211023 11.8131C0.0457665 11.0415 0.0466323 9.76103 0.212971 8.98295C0.717072 6.62461 2.23771 4.56161 4.63225 2.98797C10.0934 -0.601048 18.4592 -0.583044 23.8688 3.02951C24.5874 3.50934 25.0514 3.89025 25.7014 4.53352C26.5216 5.34533 27.0983 6.15173 27.7069 7.33773C27.7294 7.38165 27.8409 7.43708 27.9548 7.46072C28.3384 7.54055 28.8498 7.83989 29.2621 8.22568C29.5815 8.5246 29.8292 8.85062 30.439 9.7748C31.054 10.7066 33.8376 15.0144 34.0068 15.2961C34.0726 15.4057 33.9425 15.5819 33.7958 15.5819C33.6917 15.5819 33.6177 15.5124 33.4641 15.2701C33.3553 15.0986 32.6454 13.9943 31.8863 12.8162C29.2004 8.64705 29.0543 8.45355 28.3063 8.07861L27.9128 7.88132H26.7577C25.6042 7.88132 25.6026 7.88143 25.5745 8.00334C25.4212 8.67026 25.3932 8.8336 25.4265 8.86462C25.4478 8.88446 26.1033 9.25854 26.8831 9.69595L28.301 10.4913L28.2124 10.6776C28.1636 10.7801 28.1076 10.864 28.0879 10.864C28.0682 10.864 26.875 10.2019 25.4364 9.3926C23.9978 8.58327 22.7367 7.89803 22.634 7.86961C22.2248 7.75638 21.5963 8.21072 21.5963 8.61972C21.5963 9.03403 21.719 9.15485 24.2465 11.2292C25.8237 12.5236 26.7257 13.3011 26.8635 13.4849C27.1141 13.8191 27.3675 14.3117 27.6012 14.919C28.0121 15.9868 28.6804 16.5826 29.7764 16.8581L30.1373 16.9487L30.1069 17.1466C30.0901 17.2553 30.067 17.3554 30.0553 17.3688C30.009 17.4222 29.2821 17.1897 28.8615 16.9872C28.2038 16.6705 27.7522 16.2193 27.3081 15.4358C27.3048 15.4301 27.0471 15.5186 26.7353 15.6325C26.1817 15.8349 26.1563 15.8516 25.6333 16.363C23.4041 18.543 20.2073 19.9359 16.3474 20.4094C15.7217 20.4862 13.3072 20.5202 12.6407 20.4617ZM16.4826 19.7905C18.2537 19.5563 19.6269 19.2037 21.0645 18.6139C22.5733 17.9948 23.996 17.1052 24.9915 16.1583L25.3839 15.7852L24.3963 15.3124C23.3413 14.8072 23.2374 14.7235 23.1022 14.2718C23.0169 13.9866 23.1134 13.6837 23.3828 13.3907L23.5928 13.1624L23.1351 12.814C22.7728 12.5382 22.6591 12.4175 22.5894 12.2347C22.4767 11.9388 22.5174 11.6187 22.7005 11.3608L22.8396 11.1647L21.3926 10.9095C20.5967 10.7693 19.8549 10.6276 19.744 10.5948C19.5271 10.5305 19.3063 10.2833 19.2491 10.0406C19.2184 9.91049 19.9276 6.44034 20.086 5.94533C20.1569 5.72375 20.46 5.45596 20.6884 5.41312C20.9276 5.36822 25.1927 6.11962 25.4051 6.24403C25.7412 6.44088 25.8475 6.75736 25.7409 7.24413L25.6963 7.44749L25.9323 7.44716C26.0621 7.44705 26.3694 7.43122 26.6151 7.41202L27.0618 7.3771L26.8403 6.96495C26.1694 5.7167 24.9582 4.46107 23.4628 3.46346C22.7651 2.99795 21.2753 2.2626 20.3784 1.94069C19.1033 1.48321 17.5599 1.14048 16.0766 0.985493C15.2632 0.900569 13.1326 0.901762 12.3429 0.987662C10.4502 1.19341 8.73097 1.6228 7.22829 2.26477C3.74947 3.75131 1.41035 6.21377 0.811551 9.02025C0.655061 9.75376 0.642831 11.0377 0.78601 11.7046C1.10267 13.1792 1.79389 14.4557 2.9193 15.6439C5.21145 18.064 8.71257 19.5507 12.9113 19.8869C13.4734 19.9319 15.9107 19.8662 16.4826 19.7905ZM15.716 17.1494C15.4994 17.0866 15.28 16.8283 15.2339 16.5818C15.2038 16.4213 15.2405 16.3099 15.47 15.8649C16.3976 14.0666 16.8007 12.4118 16.8007 10.4031C16.8007 8.46191 16.4438 6.95151 15.5571 5.14121C15.3668 4.7526 15.211 4.39176 15.211 4.33959C15.211 4.14697 15.3718 3.86769 15.546 3.75814C15.7848 3.60793 16.185 3.63602 16.3766 3.81628C16.4502 3.88558 16.6415 4.20033 16.8017 4.51551C17.4361 5.76399 17.8708 7.13372 18.0854 8.55941C18.2182 9.44173 18.2446 11.1139 18.1386 11.9216C17.9428 13.4117 17.5504 14.7411 16.922 16.0436C16.5423 16.8309 16.3039 17.1548 16.1043 17.1548C16.0644 17.1548 15.9992 17.1648 15.9596 17.177C15.9198 17.1891 15.8102 17.1767 15.716 17.1494ZM13.1341 15.7957C12.802 15.6988 12.5625 15.2905 12.6585 14.9845C12.6817 14.9105 12.8381 14.5692 13.0059 14.2263C13.7164 12.7742 14.0119 11.2176 13.8671 9.68934C13.7481 8.4336 13.5235 7.64163 12.9578 6.48285C12.5783 5.70542 12.5606 5.58492 12.7813 5.27191C12.9912 4.97429 13.5148 4.92603 13.7899 5.17896C13.9806 5.35423 14.5737 6.59543 14.8026 7.29836C15.5601 9.62459 15.4446 12.1218 14.4737 14.407C13.9764 15.5776 13.6273 15.9395 13.1341 15.7957ZM10.4716 14.4229C10.2664 14.3302 10.0898 14.1127 10.0418 13.8935C10.0124 13.76 10.0629 13.6123 10.3064 13.1182C11.2006 11.3031 11.2102 9.55485 10.3358 7.78198C9.95183 7.00335 9.94339 6.84836 10.2682 6.54131C10.4284 6.38979 10.4965 6.36301 10.7216 6.36301C11.0992 6.36301 11.295 6.55313 11.6324 7.24771C12.1513 8.31603 12.3638 9.24281 12.3621 10.4302C12.3602 11.6507 12.1616 12.4886 11.6072 13.6151C11.2897 14.2601 11.1328 14.4304 10.8149 14.4741C10.7179 14.4875 10.5635 14.4644 10.4716 14.4229ZM7.98715 13.1442C7.8246 13.0767 7.639 12.855 7.58381 12.6623C7.52223 12.4469 7.57266 12.276 7.8167 11.8738C8.13055 11.3566 8.2036 11.079 8.2036 10.403C8.2036 9.72708 8.13055 9.44943 7.8167 8.93219C7.71032 8.75681 7.6035 8.54672 7.57926 8.46527C7.47818 8.12438 7.76162 7.7066 8.14234 7.63501C8.46506 7.57428 8.6867 7.71864 8.98345 8.18284C9.84263 9.52687 9.84252 11.3223 8.98302 12.6549C8.67989 13.1251 8.3418 13.2913 7.98715 13.1442ZM26.4975 15.232C26.7849 15.1291 27.0334 15.0316 27.0495 15.0154C27.0656 14.9993 27.0102 14.8151 26.9262 14.6062C26.754 14.1773 26.7819 14.1883 26.1702 14.3057C25.5097 14.4324 25.1263 14.3195 24.4034 13.7859C24.2063 13.6405 24.0029 13.5214 23.9516 13.5214C23.9002 13.5214 23.7876 13.5972 23.7012 13.6899C23.5159 13.8887 23.488 14.2 23.6389 14.3842C23.77 14.5443 25.5855 15.41 25.801 15.4152C25.8966 15.4174 26.2099 15.3351 26.4975 15.232ZM26.2118 13.8395C26.4809 13.7853 26.5104 13.7668 26.4642 13.6803C26.4126 13.5836 23.9016 11.4951 23.6839 11.3675C23.5041 11.2624 23.3582 11.2868 23.2092 11.4469C22.7731 11.9156 22.8239 12.0137 23.9537 12.8818C25.3161 13.9288 25.4616 13.9906 26.2118 13.8395ZM22.8407 10.6774C22.8407 10.6643 22.5559 10.4184 22.2078 10.1312C21.3478 9.42155 21.1633 9.1567 21.1633 8.63186C21.1633 8.19369 21.4549 7.77037 21.9245 7.52699C22.1576 7.40617 22.5732 7.36799 22.8084 7.44575C22.9747 7.50074 23.7246 7.90736 24.7644 8.50616L24.9834 8.6323L25.1639 7.77428C25.3488 6.89554 25.3521 6.66517 25.181 6.6117C25.129 6.59543 24.1267 6.4129 22.9537 6.20607C20.8709 5.83882 20.6436 5.81691 20.5466 5.97418C20.495 6.0578 19.7026 9.73815 19.7025 9.89465C19.7024 9.97296 19.7421 10.0702 19.7908 10.1107C19.8394 10.1512 20.5151 10.2983 21.2924 10.4378C22.7941 10.7073 22.8407 10.7146 22.8407 10.6774Z" fill="#061B31"></path></svg>