<svg width="27" height="12" viewBox="0 0 27 12" fill="none" xmlns="http://www.w3.org/2000/svg"><path d="M5.28096 2.3125C4.97572 2.67525 4.48468 2.96059 3.99585 2.91856C3.93392 2.42973 4.1728 1.90773 4.45371 1.587C4.76116 1.2154 5.29644 0.949975 5.72997 0.927856C5.78085 1.4388 5.58178 1.93869 5.28096 2.3125ZM5.72555 3.01589C5.01553 2.97607 4.40947 3.42066 4.07105 3.42066C3.73042 3.42066 3.21284 3.038 2.65323 3.04685C1.9233 3.05791 1.24425 3.47154 0.87044 4.12847C0.105125 5.44676 0.671371 7.39765 1.41236 8.46821C1.77511 8.99906 2.20864 9.58079 2.77931 9.56088C3.32122 9.54098 3.53577 9.20919 4.18828 9.20919C4.84743 9.20919 5.03544 9.56088 5.60832 9.54982C6.20111 9.54098 6.57271 9.01897 6.93546 8.48811C7.34908 7.88648 7.51718 7.30033 7.52824 7.26936C7.51718 7.2583 6.3847 6.82477 6.37364 5.51754C6.36258 4.42486 7.26724 3.90507 7.30705 3.8741C6.79832 3.11763 6.00204 3.038 5.72555 3.01589ZM9.82419 1.53613L9.82419 9.49453L11.0606 9.49453L11.0606 6.77389L12.7704 6.77389C14.332 6.77389 15.4291 5.70113 15.4291 4.15059C15.4291 2.59784 14.3519 1.53613 12.8102 1.53613L9.82419 1.53613ZM11.0606 2.57793L12.4851 2.57793C13.5557 2.57793 14.1684 3.1486 14.1684 4.15501C14.1684 5.16142 13.5557 5.73652 12.4785 5.73652L11.0606 5.73652L11.0606 2.57793ZM17.6875 9.55646C18.4616 9.55646 19.1827 9.16274 19.5079 8.5412L19.5344 8.5412L19.5344 9.49453L20.678 9.49453L20.678 5.53302C20.678 4.38505 19.76 3.64406 18.3444 3.64406C17.0328 3.64406 16.0639 4.3939 16.0263 5.42685L17.1411 5.42685C17.2318 4.93581 17.6875 4.61508 18.309 4.61508C19.0655 4.61508 19.488 4.96678 19.488 5.61486L19.488 6.05503L17.9463 6.14572C16.513 6.23198 15.7366 6.82034 15.7366 7.84003C15.7366 8.87298 16.5373 9.55646 17.6875 9.55646ZM18.0193 8.61198C17.3601 8.61198 16.9421 8.29568 16.9421 7.80906C16.9421 7.30917 17.3446 7.01941 18.1144 6.97297L19.488 6.8867L19.488 7.33572C19.488 8.08112 18.8554 8.61198 18.0193 8.61198ZM22.2042 11.66C23.4096 11.66 23.9759 11.1999 24.4714 9.8064L26.6412 3.72148L25.3849 3.72148L23.9294 8.42176L23.9051 8.42176L22.4497 3.72148L21.1579 3.72148L23.2504 9.51443L23.1376 9.86834C22.9496 10.4655 22.6443 10.6934 22.098 10.6934C22.0007 10.6934 21.8104 10.6845 21.7352 10.6735L21.7352 11.629C21.806 11.6489 22.1135 11.66 22.2042 11.66Z" fill="white"></path></svg>