<svg width="14" height="11" viewBox="0 0 14 11" fill="none" xmlns="http://www.w3.org/2000/svg"><path d="M1.8092 1.78987C1.8092 0.900793 2.52994 0.180054 3.41902 0.180054L10.5022 0.180054C11.3913 0.180054 12.112 0.900793 12.112 1.78987L12.112 8.87307C12.112 9.76214 11.3913 10.4829 10.5022 10.4829L3.41902 10.4829C2.52994 10.4829 1.8092 9.76214 1.8092 8.87307L1.8092 1.78987Z" fill="#FFA8CD"></path><path d="M9.24751 2.04102L7.81886 2.04102C7.81886 3.21618 7.09986 4.26913 6.00735 5.02124L5.57783 5.32209L5.57783 2.04102L4.09314 2.04102L4.09314 8.62197L5.57783 8.62197L5.57783 5.35969L8.03363 8.62197L9.84513 8.62197L7.4827 5.50072C8.55653 4.72041 9.25685 3.50762 9.24751 2.04102Z" fill="black"></path></svg>