<svg width="14" height="11" viewBox="0 0 14 11" fill="none" xmlns="http://www.w3.org/2000/svg"><path d="M6.96124 0.220947C9.84663 0.221188 12.1859 2.62101 12.1859 5.5813C12.1858 8.54159 9.84662 10.9414 6.96124 10.9417C4.07566 10.9417 1.73566 8.54173 1.73566 5.5813C1.73566 2.62086 4.07566 0.220947 6.96124 0.220947ZM7.8587 2.23071C7.63337 2.23071 7.45066 2.41362 7.4505 2.63892V2.94849C7.12847 2.88549 6.79638 2.88662 6.47101 2.95044V2.63892C6.47085 2.41366 6.28808 2.23079 6.06281 2.23071C5.83747 2.23071 5.65476 2.41362 5.6546 2.63892V3.26196C5.37551 3.42749 5.12546 3.64467 4.9212 3.90649C4.55262 4.37916 4.35105 4.96622 4.34894 5.57153C4.3469 6.17701 4.54494 6.76608 4.91046 7.24146C5.11645 7.5092 5.37078 7.7292 5.6546 7.89771V8.52271C5.6546 8.74814 5.83737 8.93091 6.06281 8.93091C6.28818 8.93084 6.47101 8.7481 6.47101 8.52271V8.21021C6.79638 8.27406 7.12826 8.27618 7.4505 8.21313V8.52271C7.4505 8.74814 7.63327 8.93091 7.8587 8.93091C8.08405 8.9308 8.26691 8.74808 8.26691 8.52271V7.90063C8.56619 7.7233 8.82869 7.4885 9.03741 7.20825C9.20767 6.97924 9.09861 6.66554 8.84406 6.53638C8.58212 6.40375 8.26694 6.52148 8.05988 6.72974C7.9352 6.85522 7.78945 6.95895 7.62921 7.03638C7.30871 7.1912 6.94669 7.23001 6.60187 7.14673C6.25699 7.06336 5.94927 6.86278 5.7298 6.57739C5.51048 6.29208 5.39169 5.93881 5.39288 5.57544C5.39417 5.21201 5.5153 4.85921 5.73663 4.57544C5.95794 4.29182 6.26642 4.09291 6.61163 4.01196C6.95703 3.93107 7.31949 3.97305 7.63898 4.13013C7.79876 4.20871 7.94381 4.31426 8.06769 4.44067C8.27332 4.65033 8.5881 4.76995 8.85089 4.63892C9.10633 4.51142 9.21712 4.19816 9.04816 3.96802C8.83772 3.68146 8.57151 3.44144 8.26691 3.26099V2.63892C8.26674 2.41368 8.08395 2.23082 7.8587 2.23071Z" fill="#533AFD"></path></svg>