<svg width="13" height="10" viewBox="0 0 13 10" fill="none" xmlns="http://www.w3.org/2000/svg"><path opacity="0.2" fill-rule="evenodd" clip-rule="evenodd" d="M7.74241 0.540039C6.97913 1.07758 6.48047 1.96562 6.48047 2.97014C6.48047 3.68819 6.73527 4.34672 7.15938 4.86026H1.62016C1.32191 4.86026 1.08013 5.10204 1.08013 5.4003V5.94033C1.08013 6.23858 1.32191 6.48036 1.62016 6.48036H10.2607C10.559 6.48036 10.8007 6.23858 10.8007 5.94033V5.61647C11.2326 5.39568 11.6034 5.07227 11.8808 4.67839V8.10052C11.8808 8.69703 11.3972 9.18059 10.8007 9.18059H1.08007C0.483563 9.18059 0 8.69703 0 8.10052V1.62011C0 1.0236 0.483563 0.540039 1.08007 0.540039H7.74241ZM11.3647 0.698804C11.4936 0.80759 11.6132 0.927159 11.722 1.05612C11.6328 0.910697 11.5101 0.788018 11.3647 0.698804Z" fill="#64748D"></path><path opacity="0.4" fill-rule="evenodd" clip-rule="evenodd" d="M6.80437 1.62C6.59728 2.02507 6.48047 2.48396 6.48047 2.97014C6.48047 3.06114 6.48456 3.15118 6.49257 3.2401H0V1.62H6.80437Z" fill="#64748D"></path><path fill-rule="evenodd" clip-rule="evenodd" d="M9.45066 5.94038C8.66292 5.94038 7.90744 5.62745 7.35042 5.07043C6.7934 4.51341 6.48047 3.75793 6.48047 2.97019C6.48047 2.18245 6.7934 1.42697 7.35042 0.869948C7.90744 0.31293 8.66292 0 9.45066 0C10.2384 0 10.9939 0.31293 11.5509 0.869948C12.1079 1.42697 12.4208 2.18245 12.4208 2.97019C12.4208 3.75793 12.1079 4.51341 11.5509 5.07043C10.9939 5.62745 10.2384 5.94038 9.45066 5.94038V5.94038ZM8.27107 1.73968H7.93586L7.11694 2.15551V2.57982L7.76614 2.24037V4.2007H8.27531V1.73968H8.27107ZM9.24699 2.07913C9.48885 2.07913 9.65857 2.21491 9.65857 2.4101C9.65857 2.62225 9.45915 2.77076 9.17061 2.77076H9.04332V3.13143H9.19607C9.50158 3.13143 9.70949 3.28418 9.70949 3.50482C9.70949 3.71698 9.50582 3.86125 9.21729 3.86125C9.00513 3.86125 8.79297 3.79336 8.57233 3.66182V4.08613C8.80995 4.18797 9.04756 4.24313 9.28093 4.24313C9.83678 4.24313 10.2187 3.95884 10.2187 3.54726C10.2187 3.25872 10.0405 3.02535 9.74343 2.932C9.99802 2.84714 10.1635 2.62225 10.1635 2.36767C10.1635 1.96881 9.81132 1.69725 9.30215 1.69725C9.07262 1.6998 8.84599 1.74888 8.63598 1.84152V2.25734C8.83965 2.14278 9.04756 2.07913 9.24699 2.07913V2.07913ZM11.08 3.00414C11.3898 3.00414 11.6062 3.18659 11.6062 3.4242C11.6062 3.67455 11.3898 3.84852 11.08 3.84852C10.8933 3.84852 10.6981 3.78911 10.4987 3.66606V4.10311C10.7066 4.19645 10.9188 4.24313 11.1267 4.24313C11.237 4.24313 11.3389 4.22616 11.4364 4.2007C11.6571 3.84003 11.7844 3.4242 11.7844 2.97868L11.7759 2.80046C11.6181 2.70708 11.4373 2.66003 11.254 2.66468C11.1776 2.66468 11.097 2.66893 11.0121 2.68166V2.13005H11.6231C11.5701 1.99424 11.5048 1.86357 11.428 1.73968H10.5708V3.07627C10.7406 3.03384 10.9103 3.00414 11.08 3.00414Z" fill="#64748D"></path></svg>