<svg width="11" height="11" viewBox="0 0 11 11" fill="none" xmlns="http://www.w3.org/2000/svg"><path d="M2.75 3.2313C2.75 2.94653 2.98085 2.71568 3.26562 2.71568H4.98438C5.26915 2.71568 5.5 2.94653 5.5 3.2313C5.5 3.51607 5.26915 3.74693 4.98438 3.74693H3.26562C2.98085 3.74693 2.75 3.51607 2.75 3.2313Z" fill="#474E5A"></path><path d="M3.26562 4.77818C2.98085 4.77818 2.75 5.00903 2.75 5.2938C2.75 5.57857 2.98085 5.80943 3.26562 5.80943H7.73438C8.01915 5.80943 8.25 5.57857 8.25 5.2938C8.25 5.00903 8.01915 4.77818 7.73438 4.77818H3.26562Z" fill="#474E5A"></path><path fill-rule="evenodd" clip-rule="evenodd" d="M1.06754 10.5025C0.834627 10.3861 0.6875 10.148 0.6875 9.8876V1.71875C0.6875 0.769511 1.45701 0 2.40625 0H8.59375C9.54299 0 10.3125 0.769511 10.3125 1.71875V8.25C10.3125 8.4664 10.2106 8.67016 10.0375 8.8L9.14375 9.47031C9.02153 9.56198 8.85347 9.56198 8.73125 9.47031L7.77998 8.75686C7.65251 8.66126 7.47606 8.66578 7.35366 8.76778L5.68756 10.1562C5.57524 10.2498 5.41601 10.2621 5.29064 10.1869L4.01139 9.41934C3.87614 9.33818 3.703 9.3595 3.59147 9.47103L2.23769 10.8248C2.13307 10.9294 1.97324 10.9554 1.8409 10.8892L1.06754 10.5025ZM1.71875 9.67515V1.71875C1.71875 1.33905 2.02655 1.03125 2.40625 1.03125H8.59375C8.97345 1.03125 9.28125 1.33905 9.28125 1.71875V8.07813L8.9375 8.33594L8.39873 7.93186C7.88888 7.54947 7.18308 7.56755 6.69347 7.97555L5.4025 9.05137L4.54197 8.53505C4.00094 8.21043 3.30841 8.29568 2.86226 8.74183L1.85888 9.74522L1.71875 9.67515Z" fill="#474E5A"></path></svg>