<svg width="11" height="11" viewBox="0 0 11 11" fill="none" xmlns="http://www.w3.org/2000/svg"><rect width="10.3" height="10.3" rx="1.87273" fill="#4A4AF4"></rect><path fill-rule="evenodd" clip-rule="evenodd" d="M2.55192 7.49283C2.23133 7.00401 2.04379 6.42034 2.04379 5.79376C2.04379 4.08096 3.4373 2.68789 5.1501 2.68789C6.86247 2.68789 8.25597 4.08096 8.25597 5.79376C8.25597 6.42034 8.06842 7.00401 7.74784 7.49283H8.61775C8.8701 6.97998 9.01259 6.40318 9.01259 5.79376C9.01259 3.66381 7.28005 1.93127 5.1501 1.93127C3.02015 1.93127 1.2876 3.66381 1.2876 5.79376C1.2876 6.40318 1.43008 6.97998 1.68243 7.49283H2.55192Z" fill="white"></path><path fill-rule="evenodd" clip-rule="evenodd" d="M4.9343 6.87694C4.63732 6.87694 4.47424 6.74991 4.47424 6.54048C4.47424 6.10487 5.0064 5.99973 5.6995 5.99973C5.6995 6.45593 5.39437 6.87694 4.9343 6.87694ZM5.2021 3.95862C4.63646 3.95862 3.98542 4.22513 3.63221 4.50709L3.95495 5.18603C4.23819 4.92724 4.69611 4.70494 5.10983 4.70494C5.50252 4.70494 5.71924 4.83669 5.71924 5.10106C5.71924 5.27873 5.57505 5.37916 5.30381 5.40405C4.28455 5.49803 3.49316 5.81605 3.49316 6.59841C3.49316 7.21856 3.94035 7.59365 4.67551 7.59365C5.16777 7.59365 5.55487 7.31984 5.76345 6.95891V7.49279H6.68058V5.25684C6.68058 4.33371 6.03854 3.95862 5.2021 3.95862Z" fill="white"></path></svg>