<svg width="14" height="11" viewBox="0 0 14 11" fill="none" xmlns="http://www.w3.org/2000/svg"><path d="M12.1119 7.90735C12.1118 8.61853 11.5351 9.19543 10.8239 9.19543L3.09729 9.19543C2.38609 9.19543 1.8093 8.61852 1.8092 7.90735L1.8092 4.04407L12.1119 4.04407L12.1119 7.90735ZM4.38538 6.61926C4.02989 6.61926 3.74108 6.90738 3.74084 7.26282C3.74084 7.61845 4.02975 7.90735 4.38538 7.90735L5.02893 7.90735C5.38452 7.9073 5.67249 7.61842 5.67249 7.26282C5.67225 6.90741 5.38438 6.61931 5.02893 6.61926L4.38538 6.61926ZM10.8239 1.4679C11.5351 1.4679 12.1119 2.04472 12.1119 2.75598L1.8092 2.75598C1.8092 2.04472 2.38603 1.4679 3.09729 1.4679L10.8239 1.4679Z" fill="#1A2C44"></path></svg>