<svg width="14" height="11" viewBox="0 0 14 11" fill="none" xmlns="http://www.w3.org/2000/svg"><path d="M9.53632 0.430054L4.38491 0.430054C2.96239 0.430054 1.8092 1.58324 1.8092 3.00576L1.8092 8.15718C1.8092 9.5797 2.96239 10.7329 4.38491 10.7329L9.53633 10.7329C10.9588 10.7329 12.112 9.5797 12.112 8.15717L12.112 3.00576C12.112 1.58324 10.9588 0.430054 9.53632 0.430054Z" fill="#00D64F"></path><path d="M7.22257 3.84138C7.71841 3.84312 8.19776 4.01959 8.57636 4.33978C8.61562 4.3754 8.667 4.39469 8.72 4.39368C8.773 4.39268 8.82362 4.37146 8.86149 4.33437L9.24785 3.94183C9.26745 3.92241 9.28282 3.89915 9.293 3.87351C9.30318 3.84786 9.30795 3.82039 9.30701 3.79282C9.30606 3.76524 9.29943 3.73816 9.28752 3.71328C9.27561 3.68839 9.25869 3.66623 9.2378 3.6482C8.93195 3.38811 8.57844 3.18996 8.19696 3.0648L8.31905 2.48759C8.32513 2.45802 8.32455 2.42746 8.31735 2.39815C8.31015 2.36883 8.29651 2.34149 8.27742 2.31811C8.25832 2.29472 8.23426 2.27588 8.20698 2.26296C8.1797 2.25004 8.14988 2.24336 8.11969 2.24341L7.36552 2.24341C7.31884 2.24337 7.27355 2.25929 7.23715 2.28852C7.20075 2.31775 7.17543 2.35854 7.16539 2.40413L7.05567 2.91721C6.05114 2.96667 5.20116 3.46275 5.20116 4.47964C5.20116 5.35976 5.90355 5.73684 6.64613 5.99802C7.34852 6.25919 7.71943 6.35578 7.71943 6.72359C7.71943 7.0914 7.34852 7.32322 6.80222 7.32322C6.27181 7.3316 5.75941 7.13092 5.37579 6.76455C5.33755 6.72726 5.28625 6.70639 5.23284 6.70639C5.17943 6.70639 5.12813 6.72726 5.08989 6.76455L4.6703 7.17409C4.65074 7.19297 4.63519 7.2156 4.62456 7.24062C4.61394 7.26565 4.60846 7.29255 4.60846 7.31974C4.60846 7.34693 4.61394 7.37384 4.62456 7.39886C4.63519 7.42389 4.65074 7.44652 4.6703 7.4654C5.0117 7.78748 5.42903 8.01794 5.88346 8.13534L5.77065 8.67237C5.76454 8.70221 5.76505 8.73302 5.77212 8.76264C5.77919 8.79226 5.79267 8.81998 5.81159 8.84383C5.83052 8.86769 5.85443 8.88712 5.88167 8.90075C5.9089 8.91438 5.93879 8.92188 5.96923 8.92273L6.72881 8.92273C6.77579 8.92327 6.82152 8.90757 6.85827 8.87828C6.89501 8.849 6.92052 8.80793 6.93048 8.76201L7.03944 8.24738C8.23946 8.17011 8.97122 7.52799 8.97122 6.58141C8.97122 5.71134 8.23869 5.34507 7.34852 5.04372C6.84085 4.85981 6.40195 4.73463 6.40195 4.35678C6.40195 3.97892 6.81226 3.84138 7.22257 3.84138Z" fill="white"></path></svg>