<svg width="29" height="29" viewBox="0 0 29 29" fill="none" xmlns="http://www.w3.org/2000/svg"><rect width="29" height="29" rx="14.5" fill="#E5EDF5"></rect><path d="M18.9214 15.9752C18.6631 17.5536 17.5263 18.9808 16.0642 19.5977C14.9934 20.0496 13.8376 20.1511 12.6986 19.8833C12.4594 19.827 12.093 19.6432 11.879 19.6121C10.7186 19.1188 9.72456 18.1549 9.28761 16.9543C8.65501 15.2161 9.11423 13.6748 10.1933 12.2613C11.211 10.9282 13.0648 9.72856 12.9615 7.83839C12.9468 7.57019 12.8698 7.3957 12.8053 7.15015C12.7516 6.94577 12.7694 6.85941 13.0037 6.92175C13.4833 7.04938 14.1445 7.5043 14.5193 7.83222C15.8312 8.98024 16.5437 10.632 16.1461 12.3935L16.107 12.597C16.0989 12.6486 16.0815 12.6951 16.0927 12.7474C16.2476 12.6884 16.3948 12.5918 16.5199 12.4825C16.8162 12.2236 17.0469 11.7929 17.1748 11.4222C17.2393 11.2354 17.2758 10.9545 17.3564 10.7881C17.3894 10.7201 17.4586 10.6782 17.5346 10.7011C17.6019 10.7215 17.8831 11.1965 17.9345 11.2872C18.4153 12.1353 18.7716 13.0572 18.9243 14.0183C19.0273 14.6664 19.0241 15.3271 18.9214 15.9752Z" fill="#D8571B"></path><path d="M16.6633 14.496C16.6807 14.4934 16.6816 14.4909 16.6924 14.5048C16.736 14.5608 16.8201 14.7259 16.8554 14.7966C17.5546 16.1968 16.9983 18.3385 15.6653 19.1739C14.5828 19.8523 12.9015 19.7127 11.916 18.9096C10.8551 18.045 10.5794 16.4114 11.0904 15.17C11.5338 14.0929 12.2754 13.5008 12.9757 12.6398C13.548 11.9362 13.9266 11.1629 13.8872 10.2254C13.9119 10.2189 13.9157 10.2357 13.9299 10.2467C14.4451 10.6447 14.9166 11.6491 14.9553 12.2956C14.9836 12.7678 14.838 13.2629 14.8996 13.7132C14.9542 14.112 15.492 14.9553 15.93 14.9831C16.2022 15.0003 16.5382 14.7257 16.6633 14.496Z" fill="#F59223"></path><path d="M16.0502 19.6025C16.0794 19.6106 16.1103 19.6114 16.1344 19.6117C16.7552 19.6194 17.4645 19.5633 18.0711 19.611C18.3736 19.6347 18.4358 19.8915 18.345 20.1458C17.9549 21.2381 15.9047 21.7566 14.8817 21.8613C13.3956 22.0134 10.8288 21.7707 9.77135 20.5718C9.56492 20.3378 9.22264 19.7382 9.72175 19.6258L11.857 19.6114C11.8617 19.612 11.8666 19.6108 11.8713 19.6114C12.0853 19.6426 12.4517 19.8264 12.6909 19.8827C13.8298 20.1506 14.9795 20.0543 16.0502 19.6025Z" fill="#171A16"></path><path d="M13.6766 14.3221C13.6295 14.3752 13.5777 14.4312 13.5358 14.4819C13.0881 15.0233 12.4941 16.3743 12.3993 17.0775C12.27 18.0363 12.5343 19.1185 13.5221 19.4831C15.2795 20.1318 16.2485 17.7116 15.1947 16.4951L15.1526 16.4588C15.0972 16.4109 15.0425 16.362 14.9889 16.312C14.707 16.0493 14.3777 15.8256 14.1885 15.4873C13.9471 15.0554 13.9381 14.5588 13.9485 14.0744C13.9487 14.0673 13.9408 14.0629 13.935 14.0668C13.9209 14.0766 13.9099 14.0901 13.8986 14.1034C13.8783 14.1273 13.8667 14.1406 13.8481 14.1589L13.6766 14.3221Z" fill="#FCBC4C"></path></svg>