<svg width="20" height="14" viewBox="0 0 20 14" fill="none" xmlns="http://www.w3.org/2000/svg"><path d="M0 2.31512C0 1.03652 1.03651 0 2.31512 0L17.3634 0C18.642 0 19.6785 1.03651 19.6785 2.31512L19.6785 11.5756C19.6785 12.8542 18.642 13.8907 17.3634 13.8907L2.31512 13.8907C1.03651 13.8907 0 12.8542 0 11.5756L0 2.31512Z" fill="#4A4AF4"></path><path d="M9.80811 5.87842C11.0292 5.87853 11.966 6.42634 11.9653 7.77393V11.0376H10.6265V10.2593C10.3219 10.7863 9.75718 11.1851 9.03857 11.1851C7.96462 11.185 7.31219 10.6384 7.31201 9.73291C7.31201 8.59099 8.46784 8.12652 9.95557 7.98975C10.3517 7.95361 10.562 7.80637 10.562 7.54639C10.5618 7.16021 10.2457 6.96829 9.67236 6.96826C9.06929 6.96826 8.40038 7.29182 7.98682 7.67041L7.51514 6.6792C8.03126 6.26759 8.98231 5.87842 9.80811 5.87842ZM9.73193 2.91943C12.8409 2.91943 15.3706 5.44846 15.3706 8.55811C15.3714 9.41809 15.1742 10.267 14.7944 11.0386H13.5249C13.9926 10.3251 14.266 9.47278 14.2661 8.55811C14.2661 6.05756 12.2325 4.02307 9.73193 4.02295C7.23132 4.02295 5.19678 6.05749 5.19678 8.55811C5.19686 9.47342 5.46968 10.3251 5.93799 11.0386H4.66943C4.28969 10.267 4.09251 9.41809 4.09326 8.55811C4.09326 5.44925 6.62313 2.91967 9.73193 2.91943ZM10.5337 8.85791C9.52171 8.85796 8.74468 9.01198 8.74463 9.64795C8.74463 9.95305 8.98248 10.1391 9.4165 10.1392C10.0881 10.1392 10.5337 9.52371 10.5337 8.85791Z" fill="white"></path></svg>