<svg width="14" height="11" viewBox="0 0 14 11" fill="none" xmlns="http://www.w3.org/2000/svg"><path fill-rule="evenodd" clip-rule="evenodd" d="M5.02884 5.25951L5.02884 9.44503L5.99473 9.44503L5.99473 5.25951L7.92651 5.25951L7.92651 9.44503L8.8924 9.44503L8.8924 5.25951L10.8242 5.25951L10.8242 9.44503L11.468 9.44503C11.8236 9.44503 12.1119 9.73333 12.1119 10.089L12.1119 10.7329L1.80931 10.7329L1.80931 10.089C1.80931 9.73333 2.09761 9.44503 2.45324 9.44503L3.09706 9.44503L3.09706 5.25951L5.02884 5.25951ZM6.96062 0.430054C9.97487 2.08616 11.5846 2.97349 11.79 3.09203C12.0979 3.26985 12.2035 3.66367 12.0257 3.97165C11.9043 4.18187 11.6823 4.29776 11.4557 4.29361L2.46558 4.29361C2.23894 4.29776 2.01695 4.18187 1.89558 3.97165C1.71777 3.66367 1.82329 3.26985 2.13127 3.09203C2.33659 2.97349 3.94637 2.08616 6.96062 0.430054Z" fill="#1A2C44"></path></svg>