<svg width="30" height="11" viewBox="0 0 30 11" fill="none" xmlns="http://www.w3.org/2000/svg"><path d="M5.0176 10.08C7.78875 10.08 10.0352 7.82351 10.0352 5.04C10.0352 2.25648 7.78875 0 5.0176 0C2.24646 0 0 2.25648 0 5.04C0 7.82351 2.24646 10.08 5.0176 10.08Z" fill="#00D66F"></path><path d="M15.1222 1.60345C15.1222 1.12969 15.5196 0.744629 15.9872 0.744629C16.4549 0.744629 16.8523 1.1317 16.8523 1.60345C16.8523 2.07519 16.4689 2.47234 15.9872 2.47234C15.5055 2.47234 15.1222 2.08729 15.1222 1.60345Z" fill="#011E0F"></path><path d="M12.5552 0.865584H14.0605V9.33279H12.5552V0.865584Z" fill="#011E0F"></path><path d="M16.7479 3.28479H15.2306V9.33279H16.7479V3.28479Z" fill="#011E0F"></path><path d="M27.6562 6.10316C28.7982 5.39756 29.5749 4.34723 29.882 3.28278H28.3646C27.9693 4.29884 27.0621 5.06291 26.0646 5.38749V0.863578H24.5472V9.33078H26.0646V6.81279C27.2226 7.10309 28.1378 8.10909 28.4509 9.33078H29.9783C29.7455 8.04861 28.8724 6.84908 27.6562 6.10316Z" fill="#011E0F"></path><path d="M19.4373 3.96217C19.8347 3.43196 20.6094 3.12351 21.2376 3.12351C22.4097 3.12351 23.3791 3.98435 23.3811 5.28467V9.33078H21.8638V5.62134C21.8638 5.0871 21.627 4.4702 20.8583 4.4702C19.9551 4.4702 19.4353 5.27459 19.4353 6.21606V9.33481H17.918V3.28882H19.4373V3.96217Z" fill="#011E0F"></path><path d="M4.74546 2.01611H3.21143C3.50988 3.28015 4.38135 4.36072 5.47169 5.04011C4.37936 5.7195 3.50988 6.80008 3.21143 8.06411H4.74546C5.12548 6.89483 6.17802 5.87877 7.47131 5.67112V4.40709C6.17604 4.20146 5.12349 3.18539 4.74546 2.01611Z" fill="#011E0F"></path></svg>