<svg xmlns="http://www.w3.org/2000/svg" width="24" height="24" viewBox="0 0 24 24" fill="none"><path d="M24 0H0v24h24z" fill="#000"></path><path d="M24 0H0v24h24z" fill="#ab9ff2"></path><path fill-rule="evenodd" clip-rule="evenodd" d="M10.4444 15.2962c-.94238 1.4439-2.52146 3.2713-4.62262 3.2713-.99328 0-1.94836-.409-1.94836-2.1852 0-4.5236 6.17618-11.52615 11.90668-11.52615 3.26 0 4.5589 2.2618 4.5589 4.83026 0 3.29689-2.1394 7.06649-4.2661 7.06649-.6749 0-1.006-.3706-1.006-.9584 0-.1533.0255-.3194.0764-.4983-.7258 1.2395-2.1266 2.3895-3.4382 2.3895-.9551 0-1.439-.6006-1.439-1.4439 0-.3067.0636-.6262.1783-.9456m4.9363-5.69895c0 .74845-.4416 1.12265-.9355 1.12265-.5015 0-.9356-.3742-.9356-1.12265 0-.74842.4341-1.12264.9356-1.12264.4939 0 .9355.37422.9355 1.12264m2.8066.00002c0 .74843-.4415 1.12263-.9355 1.12263-.5015 0-.9355-.3742-.9355-1.12263 0-.74844.434-1.12266.9355-1.12266.494 0 .9355.37422.9355 1.12266" fill="#fffdf8"></path></svg>