<svg width="20" height="15" viewBox="0 0 20 15" fill="none" xmlns="http://www.w3.org/2000/svg"><path d="M0 2.35294C0 1.05345 1.05345 0 2.35294 0H17.6471C18.9466 0 20 1.05345 20 2.35294V11.7647C20 13.0642 18.9466 14.1176 17.6471 14.1176H2.35294C1.05345 14.1176 0 13.0642 0 11.7647V2.35294Z" fill="#1A0826"></path><path fill-rule="evenodd" clip-rule="evenodd" d="M17.6298 6.63603C17.5221 5.76058 16.8344 5.23132 15.9005 5.23439H12.7898L13.2682 9.12699H14.6683L14.5729 8.34847H16.0544C17.219 8.34847 17.7528 7.62225 17.6298 6.63603ZM15.9021 7.25762L14.4375 7.25916L14.3221 6.32524L15.7944 6.32678C16.1405 6.33139 16.3175 6.52525 16.3467 6.79296C16.3651 6.96375 16.2867 7.25762 15.9021 7.25762Z" fill="#FFFFFA"></path><path d="M7.56982 5.23438L8.04825 9.12698H12.7267L12.2482 5.23438H7.56982Z" fill="#AA8FFF"></path><path d="M2.69764 8.0392L2.83148 9.12697H7.50527L7.35142 7.88226H5.17301L5.15301 7.72686L7.16066 6.32523L7.02684 5.23438H2.35303L2.50534 6.48062H4.6884L4.7084 6.63602L2.69764 8.0392Z" fill="#FFFFFA"></path><path d="M8.90426 3.74891C9.20263 4.02943 9.24358 4.47063 8.99567 4.73438C8.74777 4.99812 8.30487 4.98452 8.00649 4.70401C7.70812 4.42349 7.66717 3.98229 7.91508 3.71854C8.16298 3.4548 8.60588 3.46839 8.90426 3.74891Z" fill="#FFFFFA"></path></svg>