<svg width="20" height="14" viewBox="0 0 20 14" fill="none" xmlns="http://www.w3.org/2000/svg"><path d="M0 2.31512C0 1.03652 1.03652 0 2.31512 0L17.3634 0C18.642 0 19.6785 1.03651 19.6785 2.31512L19.6785 11.5756C19.6785 12.8542 18.642 13.8907 17.3634 13.8907L2.31512 13.8907C1.03652 13.8907 0 12.8542 0 11.5756L0 2.31512Z" fill="#1A0826"></path><path fill-rule="evenodd" clip-rule="evenodd" d="M17.3464 6.52952C17.2404 5.66814 16.5638 5.14738 15.645 5.1504L12.5842 5.1504L13.055 8.98044H14.4325L14.3387 8.21443H15.7964C16.9422 8.21443 17.4675 7.49989 17.3464 6.52952ZM15.6465 7.14111L14.2054 7.14263L14.0919 6.22372L15.5405 6.22523C15.8811 6.22978 16.0552 6.42052 16.084 6.68393C16.1021 6.85197 16.0249 7.14111 15.6465 7.14111Z" fill="#FFFFFA"></path><path d="M7.44824 5.15039L7.91898 8.98043H12.5223L12.0514 5.15039L7.44824 5.15039Z" fill="#AA8FFF"></path><path d="M2.65426 7.91013L2.78595 8.98042H7.38461L7.23324 7.75571L5.08984 7.75571L5.07016 7.60282L7.04555 6.22371L6.91388 5.15039L2.31519 5.15039L2.46505 6.3766H4.61302L4.6327 6.5295L2.65426 7.91013Z" fill="#FFFFFA"></path><path d="M8.76124 3.68874C9.05482 3.96475 9.09511 4.39886 8.85119 4.65837C8.60727 4.91787 8.17148 4.90449 7.87791 4.62848C7.58433 4.35248 7.54404 3.91837 7.78796 3.65886C8.03188 3.39936 8.46766 3.41273 8.76124 3.68874Z" fill="#FFFFFA"></path></svg>