<svg xmlns="http://www.w3.org/2000/svg" width="24" height="24" viewBox="0 0 24 24" fill="none"><rect width="24" height="24" rx="2" fill="#ebf1f7"></rect><path d="m18.8095 5-5.8759 4.36414 1.0866-2.57544z" fill="#e2761b"></path><path d="m5.24339 5 5.82881 4.4053-1.0337-2.6166-4.79511-1.78811zM16.6947 15.116l-1.5653 2.3984 3.3487.9214.9625-3.2663-2.7459-.053zm-12.07165.0535.95667 3.2663 3.34866-.9214-1.56525-2.3979z" fill="#e4761b"></path><path d="m8.74009 11.0643-.93198 1.4124 3.32459.1476-.1176-3.57269-2.27384 2.01389zm6.57321 0-2.3032-2.05502-.0764 3.61442 3.3187-.147-.9391-1.4118zm-6.38388 6.4498 1.99628-.9743-1.72462-1.3465zm4.19888-.9743 2.0022.9743-.2776-2.3214-1.7246 1.3465z" fill="#e4761b"></path><path d="m15.1307 17.5145-2.0021-.9744.1593 1.3054-.0176.5486zm-6.20101 0 1.86041.8796-.0117-.5492.147-1.3053z" fill="#d7c1b3"></path><path d="m10.8195 14.3308-1.6652-.4904 1.1748-.5374zm2.4155 0 .4904-1.0278 1.1807.5374z" fill="#233447"></path><path d="m8.92951 17.5141.28342-2.3979-1.84867.0529zm5.91759-2.3985.2835 2.3985 1.5652-2.345-1.8487-.0529zm1.4054-2.6395-3.3187.1476.3069 1.7069.4904-1.0278 1.1807.5374zm-7.09837 1.3641 1.18067-.5374.4845 1.0278.3129-1.7069-3.32459-.147 1.34652 1.3641z" fill="#cd6116"></path><path d="m7.80762 12.4761 1.39356 2.7165-.04704-1.3524zm7.10418 1.3641-.0588 1.3524 1.3995-2.7165zm-3.7796-1.2165-.3128 1.7069.3898 2.0139.0882-2.6519-.1646-1.0689zm1.8016 0-.1593 1.0631.0705 2.6577.3957-2.0139z" fill="#e4751f"></path><path d="m13.2709 18.3936.0176-.5492-.1481-.1294h-2.2262l-.1358.1294.0117.5492-1.86041-.8797.64974.5316 1.31707.9149h2.2615l1.323-.9149.6497-.5316-1.8604.8797z" fill="#c0ad9e"></path><path d="m13.1281 16.5399-.2834-.1952h-1.6359l-.2834.1952-.1476 1.3054.1353-.1305h2.2267l.1476.1299-.1587-1.3053z" fill="#161616"></path><path d="m19.0577 9.64755.5022-2.40962L18.8096 5l-5.6813 4.21655 2.185 1.84865 3.0888.9032.6856-.7968-.2958-.2128.4728-.431-.3663-.2834.4727-.36047zM4.5 7.23793l.50215 2.40962-.31928.23638.47275.36047-.36044.2834.47275.431-.29577.2128.67973.7968 3.08877-.9032 2.18504-1.84865L5.24441 5z" fill="#763d16"></path><path d="m13.2409 14.3312-.3957 2.0139.2834.1952 1.7246-1.3465.0588-1.3524zm-4.0866-.4904.04704 1.3524 1.72456 1.3465.2835-.1946-.3899-2.0139z" fill="#f6851b"></path><path d="m18.4011 11.9682-3.0888-.9032.939 1.4112-1.3994 2.7166 1.8428-.0236h2.7459zm-9.66205-.9038-3.08818.9038-1.02782 3.201h2.74008l1.83691.0236-1.39356-2.7166.93257-1.4112zm4.19365 1.5594.1946-3.40747.8979-2.42727h-3.9867l.8861 2.42727.2064 3.40747.0706 1.0749.0059 2.646h1.6364l.0117-2.646.0765-1.0749z" fill="#f6851b"></path></svg>