<svg width="13" height="13" viewBox="0 0 13 13" fill="none" xmlns="http://www.w3.org/2000/svg"><path d="M0 6.048C0 2.70778 2.70778 0 6.048 0C9.38822 0 12.096 2.70778 12.096 6.048C12.096 9.38822 9.38822 12.096 6.048 12.096C2.70778 12.096 0 9.38822 0 6.048Z" fill="#F5F5F5"></path><path fill-rule="evenodd" clip-rule="evenodd" d="M4.18803 4.18803C4.3541 4.02196 4.62335 4.02196 4.78942 4.18803L6.04798 5.44658L7.30653 4.18803C7.4726 4.02196 7.74185 4.02196 7.90792 4.18803C8.07399 4.3541 8.07399 4.62335 7.90792 4.78942L6.64937 6.04798L7.90792 7.30653C8.07399 7.4726 8.07399 7.74185 7.90792 7.90792C7.74185 8.07399 7.4726 8.07399 7.30653 7.90792L6.04798 6.64937L4.78942 7.90792C4.62335 8.07399 4.3541 8.07399 4.18803 7.90792C4.02196 7.74185 4.02196 7.4726 4.18803 7.30653L5.44658 6.04798L4.18803 4.78942C4.02196 4.62335 4.02196 4.3541 4.18803 4.18803Z" fill="#171717"></path></svg>