<svg width="26" height="16" viewBox="0 0 26 16" fill="none" xmlns="http://www.w3.org/2000/svg"><rect width="25.2" height="15.75" rx="2.52" fill="#00579F"></rect><path d="M11.2887 10.9299H9.69531L10.6919 4.83789H12.2852L11.2887 10.9299Z" fill="white"></path><path d="M17.0647 4.98788C16.7504 4.86462 16.252 4.72852 15.6356 4.72852C14.0621 4.72852 12.9541 5.55803 12.9474 6.74398C12.9343 7.61896 13.7407 8.105 14.3438 8.39669C14.9602 8.69484 15.1698 8.88943 15.1698 9.15513C15.1635 9.56329 14.6716 9.75143 14.2129 9.75143C13.5767 9.75143 13.2359 9.65441 12.718 9.42737L12.5082 9.33004L12.2852 10.6975C12.6589 10.8659 13.3473 11.0152 14.0622 11.0217C15.7339 11.0217 16.8223 10.2051 16.8353 8.94125C16.8416 8.24777 16.4158 7.71637 15.4978 7.28217C14.9406 7.00343 14.5993 6.81547 14.5993 6.53027C14.6058 6.27099 14.8879 6.00543 15.5171 6.00543C16.035 5.99242 16.4156 6.11552 16.7039 6.23869L16.848 6.30338L17.0647 4.98788Z" fill="white"></path><path fill-rule="evenodd" clip-rule="evenodd" d="M19.9167 4.83789H21.1491L22.4345 10.9298H20.9593C20.9593 10.9298 20.8149 10.2299 20.7691 10.016H18.7235C18.6643 10.1779 18.3891 10.9298 18.3891 10.9298H16.7173L19.084 5.34335C19.2479 4.94798 19.5367 4.83789 19.9167 4.83789ZM19.8185 7.06723C19.8185 7.06723 19.3136 8.42178 19.1824 8.77174H20.5067C20.4412 8.46714 20.1395 7.00892 20.1395 7.00892L20.0282 6.48399C19.9812 6.61916 19.9134 6.805 19.8677 6.93035C19.8367 7.01532 19.8159 7.07248 19.8185 7.06723Z" fill="white"></path><path d="M8.36436 4.83789L6.80402 8.99209L6.63351 8.14954C6.34504 7.1774 5.4403 6.12118 4.43066 5.59599L5.85991 10.9234H7.54479L10.0492 4.83789H8.36436Z" fill="white"></path><path d="M5.35533 4.83789H2.79185L2.76562 4.96098C4.76529 5.46653 6.08964 6.68486 6.63375 8.14954L6.07648 5.34998C5.98474 4.9609 5.70279 4.85073 5.35533 4.83789Z" fill="white"></path></svg>