<svg width="21" height="15" viewBox="0 0 21 15" fill="none" xmlns="http://www.w3.org/2000/svg"><path d="M0.632324 3.17743C0.632324 1.89882 1.66884 0.862305 2.94744 0.862305L17.9957 0.862305C19.2743 0.862305 20.3109 1.89882 20.3109 3.17743L20.3109 12.4379C20.3109 13.7165 19.2743 14.753 17.9957 14.753L2.94744 14.753C1.66884 14.753 0.632324 13.7165 0.632324 12.4379L0.632324 3.17743Z" fill="#FFB3C7"></path><path d="M14.9448 9.8186C14.4419 9.8186 14.0341 10.2261 14.0341 10.7288C14.0341 11.2314 14.4419 11.639 14.9448 11.639C15.4478 11.639 15.8556 11.2314 15.8556 10.7288C15.8556 10.2261 15.4478 9.8186 14.9448 9.8186Z" fill="#17120F"></path><path d="M12.9559 4.53296L11.3818 4.53296C11.3818 5.82235 10.7886 7.00581 9.75438 7.78007L9.13074 8.24683L11.5471 11.5398H13.5339L11.3105 8.50977C12.3644 7.46092 12.9559 6.04984 12.9559 4.53296Z" fill="#17120F"></path><path d="M7.32977 11.5396H8.93831L8.93831 4.53296H7.32977L7.32977 11.5396Z" fill="#17120F"></path></svg>