<svg width="21" height="15" viewBox="0 0 21 15" fill="none" xmlns="http://www.w3.org/2000/svg"><path d="M0.772583 3.15496C0.772583 1.87636 1.8091 0.839844 3.08771 0.839844L18.136 0.839844C19.4146 0.839844 20.4511 1.87636 20.4511 3.15496L20.4511 12.4154C20.4511 13.6941 19.4146 14.7306 18.136 14.7306L3.08771 14.7306C1.8091 14.7306 0.772583 13.6941 0.772583 12.4154L0.772583 3.15496Z" fill="#1434CB"></path><path d="M10.274 5.01682L9.13985 10.4641H7.76272L8.89683 5.01682L10.274 5.01682ZM15.985 8.53658L16.7141 6.48339L17.1191 8.53658L15.985 8.53658ZM17.5241 10.4641H18.7798L17.6862 5.01682H16.5115C16.2685 5.01682 16.0255 5.18443 15.9445 5.43584L13.9193 10.4641H15.3369L15.6205 9.66794L17.3621 9.66794L17.5241 10.4641ZM13.9598 8.66229C13.9598 7.23762 12.0561 7.15382 12.0561 6.52529C12.0966 6.23198 12.3397 6.06437 12.6232 6.06437C13.0687 6.02247 13.5548 6.10627 13.9598 6.31578L14.2028 5.14252C13.7978 4.97492 13.3522 4.89111 12.9472 4.89111C11.6106 4.89111 10.6385 5.64535 10.6385 6.6929C10.6385 7.48903 11.3271 7.90805 11.8131 8.15947C12.3397 8.41088 12.5422 8.57849 12.5017 8.8299C12.5017 9.20701 12.0966 9.37462 11.6916 9.37462C11.2055 9.37462 10.7195 9.24892 10.274 9.03941L10.0309 10.2127C10.517 10.4222 11.0435 10.506 11.5296 10.506C13.0282 10.5479 13.9598 9.79364 13.9598 8.66229ZM8.32978 5.01682L6.14257 10.4641H4.68443L3.59083 6.10627C3.59083 5.89676 3.42882 5.72915 3.2668 5.64535C2.86176 5.43584 2.41622 5.26823 1.93018 5.18443L1.97068 5.01682H4.2794C4.60343 5.01682 4.84645 5.26823 4.88695 5.56154L5.45401 8.70419L6.91214 5.01682H8.32978Z" fill="white"></path></svg>