<svg width="29" height="29" viewBox="0 0 29 29" fill="none" xmlns="http://www.w3.org/2000/svg"><circle cx="14.3851" cy="14.4832" r="14.3851" fill="url(#connect-payment-card-graphic-daybreak-yoga-logo-gradient)"></circle><path d="M15.2671 7.2588C15.249 7.64689 15.0676 8.24655 14.5792 8.24655C14.0908 8.24655 13.8913 7.64689 13.8913 7.2588C13.8913 6.87071 14.1041 6.27104 14.5792 6.27104C15.0543 6.27104 15.2502 6.87071 15.2671 7.2588C15.2961 7.88627 16.2754 7.8899 16.2464 7.2588C16.2029 6.32424 15.6359 5.29175 14.5792 5.29175C13.5225 5.29175 12.912 6.32303 12.912 7.2588C12.912 8.19457 13.5189 9.1799 14.5103 9.22101C15.5996 9.26574 16.2017 8.22479 16.2464 7.2588C16.2754 6.62891 15.2961 6.63012 15.2671 7.2588Z" fill="#D6D9FC"></path><path d="M14.6568 9.88012C12.911 9.88617 11.274 10.1812 10.2209 11.7263C9.47376 12.824 9.4387 14.2241 8.54404 15.236C7.86821 16.0013 6.94695 16.4861 5.97733 16.7654C5.37282 16.9395 5.63034 17.8849 6.23726 17.7096C7.13676 17.4497 7.98669 17.0374 8.70846 16.4365C9.74821 15.5721 10.1 14.4997 10.5377 13.275C10.8895 12.2885 11.5448 11.4192 12.5676 11.0831C13.2398 10.8618 13.9567 10.8606 14.658 10.8582C15.2879 10.8558 15.2891 9.87649 14.658 9.87891L14.6568 9.88012Z" fill="#D6D9FC"></path><path d="M12.4394 20.8057C11.3271 21.2893 10.0129 21.5348 8.80878 21.3002C8.25264 21.1914 7.67232 20.9448 7.53691 20.3427C7.24675 19.0527 8.60929 18.5461 9.75785 18.5255C10.3877 18.5135 10.3889 17.5342 9.75785 17.5463C8.65886 17.5668 7.4148 17.8558 6.81271 18.8749C6.51409 19.3803 6.45485 20.0368 6.59268 20.6038C7.22136 23.1947 11.2473 22.3859 12.9339 21.6532C13.5106 21.403 13.0125 20.5591 12.4394 20.8081V20.8057Z" fill="#D6D9FC"></path><path d="M9.75766 18.5255C11.3644 18.5533 13.0365 19.2775 14.2322 20.3547C14.6989 20.7755 15.394 20.0851 14.9249 19.662C13.5346 18.4095 11.6304 17.5789 9.75766 17.5462C9.12777 17.5354 9.12656 18.5146 9.75766 18.5255Z" fill="#D6D9FC"></path><path d="M11.5361 13.362C11.8251 14.2216 12.085 15.2964 11.8396 16.1947C11.6752 16.7956 11.1384 17.284 10.5895 17.5512C10.0406 17.8184 10.5194 18.6719 11.084 18.3963C11.8142 18.0396 12.4792 17.3638 12.7403 16.59C13.1078 15.5043 12.837 14.1575 12.4804 13.0996C12.2809 12.506 11.3342 12.7599 11.5361 13.3596V13.362Z" fill="#D6D9FC"></path><path d="M14.4958 10.8592C15.1958 10.8616 15.914 10.8616 16.5862 11.0841C17.6102 11.4226 18.2607 12.2882 18.6161 13.276C19.0574 14.5007 19.4044 15.5731 20.4453 16.4375C21.1671 17.0384 22.017 17.4507 22.9165 17.7106C23.5235 17.8859 23.7822 16.9405 23.1765 16.7664C22.2298 16.4931 21.3315 16.0265 20.6605 15.2926C19.7272 14.271 19.6958 12.848 18.9329 11.7273C17.8798 10.1809 16.2428 9.88715 14.497 9.88111C13.8672 9.87869 13.8659 10.858 14.497 10.8604L14.4958 10.8592Z" fill="#D6D9FC"></path><path d="M19.4168 17.5226C17.5441 17.5552 15.6399 18.387 14.2495 19.6383C14.0549 19.8136 14.067 20.1534 14.2495 20.3311C15.7293 21.7722 18.0567 22.5109 20.0866 22.2981C21.0574 22.1966 22.0935 21.8375 22.4865 20.8618C22.692 20.3516 22.7101 19.7036 22.5191 19.185C22.0536 17.9264 20.6258 17.5443 19.4156 17.5226C18.7857 17.5105 18.7857 18.4898 19.4156 18.5019C20.2728 18.5176 21.5265 18.8126 21.651 19.7205C21.7369 20.348 21.5035 20.8703 20.9003 21.1254C19.609 21.6707 17.8693 21.3055 16.6433 20.7421C16.0388 20.4641 15.421 20.1074 14.9411 19.6395V20.3323C16.1368 19.2551 17.8088 18.5309 19.4156 18.5031C20.0455 18.4922 20.0467 17.5129 19.4156 17.5238L19.4168 17.5226Z" fill="#D6D9FC"></path><path d="M16.7327 13.1021C16.3773 14.1599 16.1053 15.5056 16.4728 16.5925C16.7352 17.3662 17.3989 18.0421 18.1291 18.3987C18.6938 18.6744 19.1907 17.8293 18.6236 17.5536C18.0566 17.278 17.5404 16.798 17.3735 16.1971C17.1257 15.3012 17.388 14.2216 17.677 13.3644C17.8789 12.766 16.9334 12.5084 16.7327 13.1045V13.1021Z" fill="#D6D9FC"></path><defs><linearGradient id="connect-payment-card-graphic-daybreak-yoga-logo-gradient" x1="14.3851" y1="0.0981443" x2="21.7426" y2="38.5049" gradientUnits="userSpaceOnUse"><stop stop-color="#938DFF"></stop><stop offset="1" stop-color="#533AFD"></stop></linearGradient></defs></svg>