<svg width="20" height="15" viewBox="0 0 20 15" fill="none" xmlns="http://www.w3.org/2000/svg"><path d="M0 2.35294C0 1.05412 1.05455 0 2.35364 0H17.6473C18.9473 0 20 1.05412 20 2.35294V11.7647C20 13.0635 18.9464 14.1176 17.6473 14.1176H2.35364C1.05364 14.1176 0 13.0635 0 11.7647V2.35294Z" fill="#00D66F"></path><path d="M8.96549 2.35303H6.4707C6.95592 4.40891 8.37244 6.16567 10.1446 7.27126C8.36896 8.37597 6.95592 10.1327 6.4707 12.1886H8.96375C9.58114 10.2871 11.2924 8.6345 13.3942 8.29744V6.24156C11.2898 5.90626 9.57853 4.2545 8.96375 2.35303H8.96549Z" fill="#011E0F"></path></svg>