<svg width="25" height="25" viewBox="0 0 25 25" fill="none" xmlns="http://www.w3.org/2000/svg"><rect x="0.83844" y="0.0786133" width="23.998" height="23.998" rx="11.999" fill="#FED5E9"></rect><path d="M14.6832 7.01403C14.5975 6.74385 14.4342 6.5019 14.2608 6.28112C13.9382 5.87081 13.4018 5.25586 12.8323 5.25586C12.2627 5.25586 11.7546 5.84561 11.436 6.23979C11.2495 6.47065 11.0721 6.72772 10.9813 7.01403C10.8221 7.51607 11.6104 7.7308 11.7687 7.23077C11.8675 6.91825 12.4673 6.11176 12.8323 6.11176C13.1972 6.11176 13.797 6.91825 13.8958 7.23077C14.0541 7.72979 14.8424 7.51708 14.6832 7.01403Z" fill="#CE0045"></path><path d="M12.4937 15.2704C11.8778 13.5153 10.5087 11.8589 8.84633 11.0232C8.16988 10.6835 7.44705 10.4738 6.69499 10.3891C6.24336 10.3377 5.78768 10.3367 5.33504 10.378C4.88239 10.4193 4.32187 10.4254 3.95693 10.6895C2.93671 11.4295 4.40857 13.3459 4.97715 13.9659C6.35324 15.466 8.32311 15.6192 10.1448 14.8813C10.6257 14.6867 10.415 13.8964 9.92804 14.094C8.54389 14.6545 7.02667 14.7452 5.85724 13.6887C5.45601 13.3258 5.13442 12.8943 4.86828 12.4245C4.76041 12.234 4.66161 12.0384 4.57189 11.8388C4.45495 11.5767 4.31582 11.3579 4.69589 11.2853C7.24442 10.7994 9.55907 11.9194 10.9563 14.0546C11.1741 14.3873 11.3697 14.7351 11.54 15.095C11.6419 15.3108 11.6378 15.2906 11.7064 15.4862C11.8788 15.9791 12.6681 15.7664 12.4937 15.2694V15.2704Z" fill="#CE0045"></path><rect x="12.4056" y="16.7036" width="0.856903" height="2.19581" rx="0.428451" fill="#CE0045"></rect><path d="M11.952 11.7765C12.074 10.5012 11.7403 9.1493 10.8794 8.17948C10.1989 7.4123 9.2079 6.96167 8.21187 6.77718C6.86905 6.52918 6.81663 8.38917 6.79748 9.31564C6.78639 9.84087 7.60297 9.84087 7.61406 9.31564C7.62414 8.82266 7.63522 8.2319 7.83584 7.77018C7.94371 7.52017 8.01428 7.5615 8.28244 7.62602C8.50221 7.67844 8.72098 7.74296 8.93167 7.82361C9.61316 8.08673 10.217 8.53938 10.6031 9.16543C11.081 9.93966 11.2211 10.8802 11.1354 11.7755C11.085 12.2987 11.9026 12.2946 11.952 11.7755V11.7765Z" fill="#CE0045"></path><path d="M13.9576 15.4873C14.0685 15.1727 14.3034 14.713 14.5403 14.3209C15.0474 13.4821 15.7057 12.7119 16.5162 12.1524C17.6423 11.3751 18.97 11.0686 20.3279 11.1947C20.6041 11.2199 21.2554 11.1967 21.212 11.5485C21.1899 11.729 21.0437 11.9487 20.9651 12.108C20.7352 12.5687 20.458 13.0093 20.1092 13.3893C18.9155 14.6888 17.3015 14.7291 15.7359 14.095C15.249 13.8974 15.0373 14.6878 15.5192 14.8824C17.1574 15.5457 18.9307 15.5235 20.3128 14.3299C20.8048 13.9055 21.205 13.3672 21.5215 12.8016C21.7756 12.3469 22.2061 11.6534 22.0266 11.1201C21.7514 10.3035 20.3854 10.3478 19.6888 10.3488C18.8672 10.3488 18.0455 10.5011 17.2844 10.8136C16.0505 11.3207 15.0413 12.2068 14.259 13.2754C13.8155 13.8813 13.4213 14.5608 13.1713 15.2715C12.9969 15.7685 13.7852 15.9822 13.9586 15.4883L13.9576 15.4873Z" fill="#CE0045"></path><path d="M18.4573 9.72509C18.9828 9.72509 18.9838 8.9082 18.4573 8.9082C17.9309 8.9082 17.9309 9.72509 18.4573 9.72509Z" fill="#CE0045"></path><path d="M14.5276 11.7764C14.4419 10.8812 14.582 9.94057 15.0599 9.16633C15.4329 8.56146 16.0085 8.11889 16.6628 7.85174C16.8735 7.76605 17.0912 7.69952 17.311 7.64407C17.5681 7.57955 17.6931 7.49285 17.811 7.72069C18.0419 8.16628 18.0378 8.83164 18.0479 9.31654C18.059 9.84178 18.8756 9.84278 18.8645 9.31654C18.8454 8.38907 18.7929 6.52908 17.4501 6.77809C16.4531 6.96258 15.4661 7.41321 14.7826 8.18039C13.9207 9.14819 13.588 10.5031 13.71 11.7774C13.7594 12.2955 14.577 12.3006 14.5266 11.7774L14.5276 11.7764Z" fill="#CE0045"></path></svg>