<svg width="21" height="15" viewBox="0 0 21 15" fill="none" xmlns="http://www.w3.org/2000/svg"><path d="M0.617859 3.14471C0.617859 1.86611 1.65437 0.82959 2.93298 0.82959L17.9813 0.82959C19.2599 0.82959 20.2964 1.8661 20.2964 3.14471L20.2964 12.4052C20.2964 13.6838 19.2599 14.7203 17.9813 14.7203L2.93298 14.7203C1.65437 14.7203 0.617859 13.6838 0.617859 12.4052L0.617859 3.14471Z" fill="#1434CB"></path><path d="M10.1192 5.00681L8.98507 10.4541H7.60794L8.74204 5.00681L10.1192 5.00681ZM15.8302 8.52657L16.5593 6.47338L16.9643 8.52657L15.8302 8.52657ZM17.3694 10.4541H18.625L17.5314 5.00681H16.3568C16.1137 5.00681 15.8707 5.17442 15.7897 5.42583L13.7645 10.4541H15.1821L15.4657 9.65793L17.2073 9.65793L17.3694 10.4541ZM13.805 8.65228C13.805 7.22761 11.9013 7.14381 11.9013 6.51528C11.9418 6.22197 12.1849 6.05436 12.4684 6.05436C12.9139 6.01246 13.4 6.09626 13.805 6.30577L14.048 5.13252C13.643 4.96491 13.1975 4.8811 12.7924 4.8811C11.4558 4.8811 10.4837 5.63534 10.4837 6.68289C10.4837 7.47902 11.1723 7.89804 11.6583 8.14946C12.1849 8.40087 12.3874 8.56848 12.3469 8.81989C12.3469 9.197 11.9418 9.36461 11.5368 9.36461C11.0508 9.36461 10.5647 9.23891 10.1192 9.0294L9.87615 10.2027C10.3622 10.4122 10.8887 10.496 11.3748 10.496C12.8734 10.5379 13.805 9.78363 13.805 8.65228ZM8.17499 5.00681L5.98778 10.4541H4.52965L3.43605 6.09626C3.43605 5.88675 3.27403 5.71914 3.11202 5.63534C2.70698 5.42583 2.26144 5.25822 1.77539 5.17442L1.81589 5.00681H4.12461C4.44864 5.00681 4.69166 5.25822 4.73217 5.55153L5.29922 8.69418L6.75736 5.00681H8.17499Z" fill="white"></path></svg>