<svg width="16" height="16" viewBox="0 0 16 16" fill="none" xmlns="http://www.w3.org/2000/svg"><path d="M16 8C16 12.4183 12.4183 16 8 16C3.58172 16 0 12.4183 0 8C0 3.58172 3.58172 0 8 0C12.4183 0 16 3.58172 16 8Z" fill="#FAB000"></path><path d="M16 8C16 12.4183 12.4183 16 8 16C3.58172 16 0 12.4183 0 8C0 3.58172 3.58172 0 8 0C12.4183 0 16 3.58172 16 8Z" fill="#FAB000"></path><path d="M8.74929 12H7.62081L5.58086 5.97782V12H4.28962V4.20914H6.19936L8.20675 10.1771L10.2141 4.20914H12.0805V12H10.7892V5.97782L8.74929 12Z" fill="white"></path></svg>