<svg width="16" height="16" viewBox="0 0 16 16" fill="none" xmlns="http://www.w3.org/2000/svg"><rect width="16" height="16" rx="8" fill="#E5EDF5"></rect><path d="M11.4449 9.15132C11.2641 10.2562 10.4683 11.2552 9.44482 11.687C8.69531 12.0033 7.8862 12.0744 7.08893 11.887C6.9215 11.8476 6.665 11.7189 6.51522 11.6971C5.70294 11.3518 5.00707 10.6771 4.7012 9.83668C4.25838 8.61995 4.57984 7.54105 5.33521 6.55162C6.04757 5.61848 7.34527 4.77872 7.27294 3.45562C7.26267 3.26788 7.20873 3.14573 7.16357 2.97385C7.126 2.83079 7.13846 2.77034 7.30247 2.81397C7.63819 2.90332 8.10106 3.22175 8.36338 3.4513C9.28172 4.2549 9.78046 5.41115 9.50214 6.64416L9.4748 6.7866C9.46915 6.82272 9.45695 6.85527 9.46478 6.89189C9.57324 6.85058 9.67629 6.78295 9.7638 6.70647C9.97123 6.52525 10.1328 6.22371 10.2223 5.96428C10.2674 5.8335 10.293 5.63683 10.3494 5.52042C10.3725 5.4728 10.4209 5.44349 10.4741 5.45951C10.5212 5.47375 10.7181 5.80626 10.7541 5.86974C11.0906 6.46343 11.34 7.10877 11.4469 7.78151C11.519 8.23517 11.5168 8.69762 11.4449 9.15132Z" fill="#D8571B"></path><path d="M9.86419 8.11589C9.8764 8.11407 9.87701 8.11232 9.88456 8.12208C9.91508 8.16127 9.97401 8.27681 9.99871 8.3263C10.4881 9.30643 10.0987 10.8056 9.16565 11.3904C8.40788 11.8652 7.23093 11.7675 6.54108 11.2054C5.79846 10.6002 5.60546 9.45668 5.96316 8.58769C6.27353 7.8337 6.79264 7.41924 7.28289 6.81654C7.68348 6.32406 7.94848 5.78273 7.92093 5.12647C7.93821 5.12194 7.94085 5.13369 7.95083 5.14141C8.31147 5.41999 8.6415 6.12308 8.66864 6.57562C8.68843 6.90613 8.58649 7.25276 8.62962 7.56791C8.66785 7.84711 9.04432 8.4374 9.35093 8.45683C9.54141 8.46891 9.77664 8.27669 9.86419 8.11589Z" fill="#F59223"></path><path d="M9.43506 11.6904C9.45551 11.6961 9.47712 11.6966 9.49399 11.6968C9.92857 11.7022 10.425 11.6629 10.8497 11.6963C11.0614 11.713 11.105 11.8927 11.0414 12.0707C10.7683 12.8353 9.3332 13.1982 8.61709 13.2715C7.57684 13.378 5.78006 13.2081 5.03983 12.3689C4.89533 12.2051 4.65573 11.7854 5.0051 11.7067L6.49981 11.6966C6.5031 11.697 6.50653 11.6962 6.50979 11.6966C6.65956 11.7184 6.91607 11.8471 7.0835 11.8865C7.88077 12.074 8.68554 12.0066 9.43506 11.6904Z" fill="#171A16"></path><path d="M7.77351 7.99413C7.74052 8.03132 7.70432 8.07052 7.67495 8.10601C7.36154 8.48502 6.94573 9.43065 6.87937 9.92292C6.7889 10.594 6.97394 11.3516 7.66534 11.6068C8.89558 12.0609 9.57384 10.3668 8.8362 9.51522L8.80675 9.48981C8.76791 9.45631 8.72968 9.4221 8.69215 9.3871C8.49478 9.20318 8.2643 9.04662 8.13188 8.80981C7.96284 8.50744 7.95657 8.15982 7.96387 7.82075C7.964 7.81581 7.95847 7.8127 7.95443 7.81548C7.94453 7.82229 7.93682 7.83179 7.92894 7.84105C7.91472 7.85783 7.90655 7.86708 7.89356 7.87991L7.77351 7.99413Z" fill="#FCBC4C"></path></svg>