<svg width="16" height="16" viewBox="0 0 16 16" fill="none" xmlns="http://www.w3.org/2000/svg"><circle cx="8" cy="8" r="8" fill="url(#connect-dashboard-graphic-daybreak-yoga-logo-gradient)"></circle><path d="M8.49043 3.98237C8.48035 4.19819 8.37949 4.53169 8.10786 4.53169C7.83622 4.53169 7.72528 4.19819 7.72528 3.98237C7.72528 3.76654 7.84362 3.43304 8.10786 3.43304C8.37209 3.43304 8.48102 3.76654 8.49043 3.98237C8.50657 4.33132 9.05118 4.33334 9.03505 3.98237C9.01084 3.46263 8.6955 2.88843 8.10786 2.88843C7.52021 2.88843 7.18066 3.46196 7.18066 3.98237C7.18066 4.50278 7.51819 5.05075 8.06953 5.07361C8.67533 5.09849 9.01017 4.51958 9.03505 3.98237C9.05118 3.63206 8.50657 3.63274 8.49043 3.98237Z" fill="#D6D9FC"></path><path d="M8.15079 5.44013C7.1799 5.44349 6.26951 5.60755 5.68388 6.46683C5.26836 7.07734 5.24886 7.85593 4.75131 8.4187C4.37546 8.84431 3.86312 9.11393 3.32388 9.26924C2.9877 9.36607 3.13092 9.89185 3.46844 9.79436C3.96868 9.6498 4.44135 9.42053 4.84276 9.08636C5.42099 8.60562 5.61665 8.00923 5.86004 7.32813C6.0557 6.77948 6.42012 6.29605 6.98894 6.10913C7.36278 5.98609 7.76149 5.98542 8.15146 5.98407C8.50176 5.98273 8.50244 5.43811 8.15146 5.43946L8.15079 5.44013Z" fill="#D6D9FC"></path><path d="M6.91776 11.5161C6.29918 11.7851 5.56833 11.9216 4.89865 11.7911C4.58936 11.7306 4.26663 11.5934 4.19132 11.2586C4.02995 10.5412 4.78771 10.2595 5.42646 10.248C5.77676 10.2413 5.77743 9.69671 5.42646 9.70343C4.81528 9.71486 4.12341 9.87556 3.78858 10.4424C3.6225 10.7234 3.58956 11.0885 3.66621 11.4038C4.01583 12.8447 6.25481 12.3949 7.19276 11.9875C7.51348 11.8483 7.23646 11.379 6.91776 11.5175V11.5161Z" fill="#D6D9FC"></path><path d="M5.42606 10.248C6.31964 10.2635 7.24952 10.6662 7.91449 11.2653C8.17402 11.4993 8.56063 11.1154 8.29975 10.8801C7.52653 10.1835 6.46756 9.72157 5.42606 9.70342C5.07576 9.69737 5.07509 10.242 5.42606 10.248Z" fill="#D6D9FC"></path><path d="M6.41509 7.37642C6.57579 7.85447 6.72035 8.4522 6.58386 8.95177C6.49242 9.28593 6.19389 9.55757 5.88863 9.70616C5.58338 9.85475 5.84964 10.3294 6.16363 10.1761C6.56974 9.9778 6.93954 9.60194 7.08477 9.17163C7.28917 8.56785 7.13856 7.81883 6.94021 7.23051C6.82927 6.90038 6.30281 7.04158 6.41509 7.37507V7.37642Z" fill="#D6D9FC"></path><path d="M8.06113 5.98462C8.45043 5.98596 8.84982 5.98596 9.22365 6.10968C9.79315 6.29794 10.1549 6.77935 10.3526 7.32868C10.598 8.00978 10.7909 8.60617 11.3698 9.08691C11.7712 9.42108 12.2439 9.65035 12.7442 9.79491C13.0817 9.8924 13.2256 9.36661 12.8887 9.26979C12.3623 9.11784 11.8627 8.85831 11.4895 8.45018C10.9705 7.88203 10.953 7.09066 10.5287 6.46738C9.94308 5.60742 9.0327 5.44404 8.06181 5.44068C7.7115 5.43933 7.71083 5.98395 8.06181 5.98529L8.06113 5.98462Z" fill="#D6D9FC"></path><path d="M10.7981 9.69025C9.75658 9.7084 8.69761 10.171 7.92439 10.8669C7.81614 10.9644 7.82286 11.1533 7.92439 11.2521C8.74736 12.0536 10.0417 12.4644 11.1706 12.3461C11.7105 12.2896 12.2867 12.0899 12.5052 11.5473C12.6195 11.2636 12.6296 10.9032 12.5234 10.6147C12.2645 9.91482 11.4704 9.70235 10.7974 9.69025C10.4471 9.68352 10.4471 10.2281 10.7974 10.2349C11.2741 10.2436 11.9714 10.4077 12.0406 10.9126C12.0883 11.2616 11.9586 11.552 11.6231 11.6939C10.905 11.9971 9.93745 11.7941 9.25567 11.4808C8.91949 11.3261 8.57591 11.1278 8.30898 10.8676V11.2528C8.97395 10.6537 9.90383 10.251 10.7974 10.2355C11.1477 10.2295 11.1484 9.68487 10.7974 9.69092L10.7981 9.69025Z" fill="#D6D9FC"></path><path d="M9.30534 7.232C9.10766 7.82032 8.95638 8.56866 9.16078 9.17312C9.30668 9.60343 9.67581 9.97928 10.0819 10.1776C10.3959 10.3309 10.6723 9.86095 10.3569 9.70765C10.0416 9.55435 9.75448 9.28742 9.66169 8.95326C9.52386 8.45503 9.66976 7.85461 9.83045 7.3779C9.94274 7.04508 9.41695 6.90187 9.30534 7.23335V7.232Z" fill="#D6D9FC"></path><defs><linearGradient id="connect-dashboard-graphic-daybreak-yoga-logo-gradient" x1="8" y1="-1.21943e-07" x2="12.0917" y2="21.3592" gradientUnits="userSpaceOnUse"><stop stop-color="#938DFF"></stop><stop offset="1" stop-color="#533AFD"></stop></linearGradient></defs></svg>