<svg width="16" height="16" viewBox="0 0 16 16" fill="none" xmlns="http://www.w3.org/2000/svg"><rect width="16" height="16" rx="8" fill="white"></rect><path d="M6.78069 3.2085H9.21912M7.9999 2V4.417M6.78069 12.7915H9.21912M7.9999 11.583V14M4.30018 5.55942H6.7386M5.51939 4.35092V6.76792M2 8.06823H4.43842M3.21921 6.85973V9.27672M11.5616 8.06823H14M12.7808 6.85973V9.27672M9.26139 5.55942H11.6998M10.4806 4.35092V6.76792M4.30018 10.538H6.7386M5.51939 9.32954V11.7465M9.26139 10.538H11.6998M10.4806 9.32954V11.7465M7.10536 2H8.89445C9.07376 2 9.21912 2.14408 9.21912 2.32181V4.09519C9.21912 4.27292 9.07376 4.417 8.89445 4.417H7.10536C6.92605 4.417 6.78069 4.27292 6.78069 4.09519V2.32181C6.78069 2.14408 6.92605 2 7.10536 2ZM7.10536 11.583H8.89445C9.07376 11.583 9.21912 11.7271 9.21912 11.9048V13.6782C9.21912 13.8559 9.07376 14 8.89445 14H7.10536C6.92605 14 6.78069 13.8559 6.78069 13.6782V11.9048C6.78069 11.7271 6.92605 11.583 7.10536 11.583ZM4.62484 4.35092H6.41394C6.59325 4.35092 6.7386 4.495 6.7386 4.67273V6.44611C6.7386 6.62384 6.59325 6.76792 6.41394 6.76792H4.62484C4.44554 6.76792 4.30018 6.62384 4.30018 6.44611V4.67273C4.30018 4.495 4.44554 4.35092 4.62484 4.35092ZM2.32466 6.85972H4.11376C4.29307 6.85972 4.43842 7.0038 4.43842 7.18153V8.95491C4.43842 9.13264 4.29307 9.27672 4.11376 9.27672H2.32466C2.14536 9.27672 2 9.13264 2 8.95491V7.18153C2 7.0038 2.14536 6.85972 2.32466 6.85972ZM7.12482 6.79813H8.87498C9.09935 6.79813 9.28125 6.97842 9.28125 7.20083V8.93561C9.28125 9.15802 9.09935 9.33831 8.87498 9.33831H7.12482C6.90044 9.33831 6.71854 9.15802 6.71854 8.93561V7.20083C6.71854 6.97842 6.90044 6.79813 7.12482 6.79813ZM11.8862 6.85972H13.6753C13.8546 6.85972 14 7.0038 14 7.18153V8.95491C14 9.13264 13.8546 9.27672 13.6753 9.27672H11.8862C11.7069 9.27672 11.5616 9.13264 11.5616 8.95491V7.18153C11.5616 7.0038 11.7069 6.85972 11.8862 6.85972ZM9.58605 4.35092H11.3752C11.5545 4.35092 11.6998 4.495 11.6998 4.67273V6.44611C11.6998 6.62384 11.5545 6.76792 11.3752 6.76792H9.58605C9.40675 6.76792 9.26139 6.62384 9.26139 6.44611V4.67273C9.26139 4.495 9.40675 4.35092 9.58605 4.35092ZM4.62484 9.32954H6.41394C6.59325 9.32954 6.7386 9.47362 6.7386 9.65135V11.4247C6.7386 11.6025 6.59325 11.7465 6.41394 11.7465H4.62484C4.44554 11.7465 4.30018 11.6025 4.30018 11.4247V9.65135C4.30018 9.47362 4.44554 9.32954 4.62484 9.32954ZM9.58605 9.32954H11.3752C11.5545 9.32954 11.6998 9.47362 11.6998 9.65135V11.4247C11.6998 11.6025 11.5545 11.7465 11.3752 11.7465H9.58605C9.40675 11.7465 9.26139 11.6025 9.26139 11.4247V9.65135C9.26139 9.47362 9.40675 9.32954 9.58605 9.32954Z" stroke="#090B0A" stroke-width="0.54675" stroke-miterlimit="10"></path></svg>