<svg width="17" height="17" viewBox="0 0 17 17" fill="none" xmlns="http://www.w3.org/2000/svg"><circle cx="8.8761" cy="8.12207" r="8" fill="#7F7DFC"></circle><path d="M6.38794 12.4358V4.64493H9.48041C11.1514 4.64493 12.0412 5.37193 12.0412 6.69572C12.0412 7.66144 11.477 8.16058 10.9344 8.3776C11.7482 8.63802 12.2908 9.31076 12.2908 10.2656C12.2908 11.6328 11.2816 12.4358 9.67573 12.4358H6.38794ZM7.72259 7.86761H9.3502C10.24 7.86761 10.7283 7.52038 10.7283 6.83678C10.7283 6.15318 10.24 5.81681 9.3502 5.81681H7.72259V7.86761ZM7.72259 9.03949V11.2639H9.59977C10.4787 11.2639 10.9561 10.8082 10.9561 10.1463C10.9561 9.49523 10.4787 9.03949 9.59977 9.03949H7.72259Z" fill="white"></path></svg>