<svg width="16" height="16" viewBox="0 0 16 16" fill="none" xmlns="http://www.w3.org/2000/svg"><rect width="16" height="16" rx="8" fill="#FBF4E4"></rect><path d="M3.04056 6.34611C3.12814 6.3506 3.21235 6.31972 3.27804 6.25965L3.32744 6.21361C3.61151 5.94919 3.83551 5.73979 4.31102 5.73979C4.78653 5.73979 5.01053 5.94863 5.2946 6.21361C5.62133 6.51789 5.9913 6.8626 6.72112 6.8626C7.45095 6.8626 7.82091 6.51789 8.14765 6.21361C8.43172 5.94919 8.65572 5.73979 9.13123 5.73979C9.60674 5.73979 9.83074 5.94863 10.1148 6.21361C10.4415 6.51789 10.8115 6.8626 11.5413 6.8626C12.2712 6.8626 12.6411 6.51789 12.9679 6.21361C13.0285 6.15747 13.0908 6.09909 13.1542 6.04519C13.2935 5.92674 13.3131 5.71453 13.198 5.57137C13.1419 5.50175 13.0622 5.45853 12.9746 5.45067C12.8876 5.44225 12.8017 5.46975 12.7343 5.52702C12.6602 5.58989 12.5917 5.65389 12.5249 5.71565C12.2408 5.98007 12.0168 6.18891 11.5413 6.18891C11.0658 6.18891 10.8418 5.98007 10.5578 5.71509C10.231 5.41081 9.86105 5.06611 9.13123 5.06611C8.4014 5.06611 8.03144 5.41081 7.7047 5.71509C7.42063 5.97951 7.19663 6.18891 6.72112 6.18891C6.24561 6.18891 6.02161 5.98007 5.73754 5.71509C5.41081 5.41081 5.04084 5.06611 4.31102 5.06611C3.58119 5.06611 3.21123 5.41081 2.88449 5.71509L2.83677 5.75944C2.7026 5.88407 2.69193 6.09684 2.81319 6.23495C2.87214 6.30175 2.95298 6.34161 3.04112 6.34611H3.04056Z" fill="#10120C"></path><path d="M12.9729 7.48632C12.8859 7.4779 12.8 7.5054 12.7326 7.56267C12.6585 7.62554 12.59 7.68954 12.5232 7.7513C12.2392 8.01572 12.0152 8.22512 11.5396 8.22512C11.0641 8.22512 10.8401 8.01628 10.5561 7.7513C10.2293 7.44702 9.85937 7.10232 9.12954 7.10232C8.39972 7.10232 8.02975 7.44702 7.70302 7.7513C7.41895 8.01572 7.19495 8.22512 6.71944 8.22512C6.24393 8.22512 6.01993 8.01628 5.73586 7.7513C5.40912 7.44702 5.03916 7.10232 4.30933 7.10232C3.57951 7.10232 3.20954 7.44702 2.88281 7.7513L2.83509 7.79565C2.70091 7.92028 2.69025 8.13305 2.81151 8.27116C2.87046 8.33853 2.95186 8.37782 3.04 8.38232C3.12758 8.38681 3.21179 8.35593 3.27691 8.29586L3.32632 8.24982C3.61039 7.9854 3.83439 7.776 4.30989 7.776C4.7854 7.776 5.0094 7.98484 5.29347 8.24982C5.62021 8.5541 5.99018 8.89881 6.72 8.89881C7.44982 8.89881 7.81979 8.5541 8.14653 8.24982C8.4306 7.9854 8.6546 7.776 9.13011 7.776C9.60561 7.776 9.82961 7.98484 10.1137 8.24982C10.4404 8.5541 10.8104 8.89881 11.5402 8.89881C12.27 8.89881 12.64 8.5541 12.9667 8.24982C13.0274 8.19312 13.0902 8.13474 13.1531 8.0814C13.2923 7.96295 13.312 7.75074 13.1969 7.60758C13.1408 7.53796 13.0611 7.49474 12.9735 7.48688L12.9729 7.48632Z" fill="#10120C"></path><path d="M12.9729 9.5214C12.8853 9.51298 12.8 9.53993 12.7326 9.59776C12.6585 9.66063 12.59 9.72463 12.5232 9.78639C12.2392 10.0508 12.0152 10.2596 11.5396 10.2596C11.0641 10.2596 10.8401 10.0508 10.5561 9.78582C10.2293 9.48154 9.85937 9.13684 9.12954 9.13684C8.39972 9.13684 8.02975 9.48154 7.70302 9.78582C7.41895 10.0502 7.19495 10.2596 6.71944 10.2596C6.24393 10.2596 6.01993 10.0508 5.73586 9.78582C5.40912 9.48154 5.03916 9.13684 4.30933 9.13684C3.57951 9.13684 3.20954 9.48154 2.88281 9.78582L2.83453 9.83074C2.70035 9.95537 2.68968 10.1681 2.81095 10.3057C2.86989 10.3731 2.9513 10.4124 3.03944 10.4168C3.12758 10.4219 3.21123 10.3905 3.27635 10.3304L3.32575 10.2844C3.60982 10.0199 3.83382 9.81053 4.30877 9.81053C4.78372 9.81053 5.00828 10.0194 5.29235 10.2844C5.61909 10.5886 5.98905 10.9333 6.71888 10.9333C7.4487 10.9333 7.81867 10.5886 8.1454 10.2844C8.42947 10.0199 8.65347 9.81053 9.12898 9.81053C9.60449 9.81053 9.82849 10.0194 10.1126 10.2844C10.4393 10.5886 10.8093 10.9333 11.5391 10.9333C12.2689 10.9333 12.6389 10.5886 12.9656 10.2844C13.0262 10.2276 13.0891 10.1693 13.152 10.1159C13.2912 9.99747 13.3109 9.78526 13.1958 9.64211C13.1397 9.57249 13.0599 9.52926 12.9724 9.5214H12.9729Z" fill="#10120C"></path></svg>