<svg width="16" height="17" viewBox="0 0 16 17" fill="none" xmlns="http://www.w3.org/2000/svg"><circle cx="7.99988" cy="8.53076" r="8" fill="#FAB000"></circle><path d="M4.71961 11.3254L5.78299 10.4465C6.32553 11.2928 7.13934 11.7811 8.0291 11.7811C8.90801 11.7811 9.56991 11.3796 9.56991 10.6309C9.56991 9.83881 8.7561 9.73031 7.59507 9.44819C6.42318 9.16607 5.16449 8.81884 5.16449 7.29973C5.16449 5.85657 6.40148 4.93426 7.97485 4.93426C9.30949 4.93426 10.3512 5.5636 10.872 6.37741L9.85203 7.25633C9.418 6.58358 8.84291 6.11699 7.93144 6.11699C7.09593 6.11699 6.52084 6.54017 6.52084 7.15867C6.52084 7.84227 7.11763 7.98333 8.17016 8.22205C9.42885 8.50417 10.9371 8.79714 10.9371 10.4899C10.9371 12.0198 9.59161 12.9638 7.9857 12.9638C6.65105 12.9638 5.32725 12.3236 4.71961 11.3254Z" fill="white"></path></svg>