<svg xmlns="http://www.w3.org/2000/svg" width="150" height="36" fill="none" viewBox="0 0 200 48" aria-hidden="true"><g transform="translate(0.00, -1.00)"><path fill="var(--customerLogoColor, #ff671a)" fill-rule="evenodd" d="M51.108 24.387c.326.004.33.004.33.325q.002 3.765 0 7.531c0 .085.014.172-.037.267-.2-.025-.362-.15-.532-.242-1.336-.729-2.667-1.466-4.001-2.199-.635-.348-1.274-.69-1.906-1.041-.144-.08-.259-.095-.413-.01-.905.505-1.817.997-2.726 1.494q-1.807.988-3.612 1.978c-.067.036-.13.075-.211.041v-8.127c.125-.006.25-.017.375-.017zm.34-3.071q.005.572 0 1.144c-.004.312-.007.313-.343.316h-.301L38 22.778v-1.773q6.553-.003 13.105-.003c.336 0 .34.003.342.314m-13.243-3.663.207.004h12.553c.506 0 .475-.044.473.383v.099c.003.332-.006.665.003.997.005.18-.041.285-.25.261-.074-.008-.15 0-.225 0l-12.59-.001c-.126 0-.251-.011-.376-.017v-1.7a.7.7 0 0 1 .205-.026" clip-rule="evenodd"></path><path fill="var(--customerLogoColor, #5a5b5d)" fill-rule="evenodd" d="M60.94 17.312c1.151-.014 2.242.21 3.258.76.624.337 1.154.781 1.635 1.289.106.112.073.184-.034.27q-.725.588-1.44 1.188c-.13.11-.213.068-.313-.036a3.8 3.8 0 0 0-1.158-.806c-1.04-.486-2.116-.592-3.224-.27-.339.098-.657.258-.89.528-.462.531-.46 1.282-.02 1.838.288.363.7.552 1.096.764.45.241.922.434 1.398.617l.955.36c.924.358 1.805.794 2.615 1.368.922.652 1.429 1.53 1.57 2.623.144 1.118-.041 2.159-.77 3.066-.59.734-1.378 1.186-2.277 1.429-1.832.496-3.63.39-5.36-.421a6.4 6.4 0 0 1-2.036-1.495c-.23-.25-.227-.253.044-.482.428-.36.854-.723 1.285-1.08.248-.204.258-.206.483.013.35.34.723.65 1.152.886 1.285.712 2.605.877 4.004.298 1.129-.468 1.35-1.831.537-2.701-.58-.62-1.317-.968-2.092-1.27-.955-.371-1.93-.703-2.83-1.2-.724-.401-1.423-.837-1.92-1.51-.406-.55-.655-1.158-.671-1.848-.016-.683.02-1.347.365-1.97.487-.88 1.252-1.423 2.169-1.794.79-.32 1.62-.424 2.47-.414m42.866.001c1.209-.02 2.336.23 3.374.815.57.322 1.064.738 1.511 1.21.112.117.104.202-.021.302-.475.382-.95.763-1.416 1.156-.14.119-.227.099-.343-.022a3.9 3.9 0 0 0-1.468-.94c-1.006-.372-2.035-.445-3.058-.073-.571.208-1.001.572-1.061 1.22-.061.668.221 1.166.796 1.517.793.484 1.646.84 2.518 1.154 1.124.405 2.2.896 3.16 1.607.871.644 1.33 1.508 1.459 2.564.115.945.008 1.84-.499 2.67a3.7 3.7 0 0 1-1.588 1.426c-1.502.717-3.082.836-4.702.501a6.85 6.85 0 0 1-3.693-2.076c-.188-.201-.185-.212.037-.397.469-.39.942-.774 1.4-1.176.151-.133.245-.108.37.016.373.368.774.703 1.239.955 1.321.715 2.674.877 4.074.219a1.554 1.554 0 0 0 .901-1.667c-.098-.7-.573-1.123-1.095-1.52-.432-.329-.943-.513-1.44-.715-.684-.277-1.385-.514-2.059-.815-.79-.354-1.547-.768-2.197-1.339-.927-.812-1.29-1.85-1.198-3.05.105-1.383.878-2.32 2.098-2.936.913-.462 1.897-.627 2.901-.606m12.07-5.612c.049.153.028.29.028.424l.001 4.874.001.259c.003.402.004.403.414.404h3.056c.17.004.201.028.206.163l.001 1.767c-.002.198-.023.224-.221.227h-2.986c-.075 0-.151.006-.226 0-.173-.015-.261.048-.246.23.008.097.001.196.001.295l.001 7.976c0 .358.036.714.154 1.055.204.588.565.85 1.197.884.472.025.923-.058 1.362-.228.27-.104.278-.099.37.154.184.51.357 1.024.545 1.532.05.134.024.203-.107.258-1.286.542-2.611.81-3.999.473-1.058-.256-1.645-.967-1.897-1.983-.12-.483-.152-.97-.151-1.464q.002-4.32.001-8.64.002-.13-.001-.26c-.007-.275-.007-.28-.299-.281l-1.809-.002c-.304-.001-.307-.006-.309-.312q-.004-.776 0-1.55c.002-.286.006-.291.287-.293l.867-.002h.866c.395 0 .397-.001.397-.378.001-1.304.009-2.61-.006-3.914-.003-.273.089-.422.33-.547.61-.316 1.205-.658 1.809-.985.106-.057.202-.148.363-.136m-46.811 5.954q1.074.006 2.147.002c.145 0 .205.06.195.2-.005.085 0 .171 0 .258v8.197c0 .642.054 1.277.242 1.898.362 1.197 1.379 1.996 2.65 2.051.656.028 1.302-.022 1.922-.273.743-.3 1.23-.828 1.513-1.551.257-.654.325-1.336.325-2.03q-.003-4.155 0-8.308c0-.41-.047-.441.265-.443h.171q.904-.002 1.809.002c.273.002.273.007.281.26l.001.092v13.793c0 .38.03.433-.209.44h-.234c-.603 0-1.205.003-1.808 0-.267-.003-.272-.009-.276-.27-.005-.327-.001-.653-.001-.994-.176.027-.234.134-.304.207-.91.955-2.04 1.395-3.36 1.408-.849.008-1.684-.095-2.477-.395-1.16-.44-1.965-1.245-2.432-2.377-.324-.783-.482-1.604-.56-2.439a13 13 0 0 1-.048-1.18c-.004-2.708-.002-5.416-.002-8.124 0-.074.003-.148 0-.221-.007-.133.034-.204.19-.203m75.077-.17c1.524.364 2.619 1.248 3.276 2.648.275.587.275.58-.338.786-.499.167-.991.352-1.487.527-.302.107-.309.108-.444-.17-.313-.645-.77-1.144-1.446-1.44-.293-.13-.603-.173-.915-.196-1.632-.12-2.822.556-3.468 2.047-.54 1.245-.607 2.555-.552 3.877.038.901.171 1.788.547 2.625.395.883.981 1.587 1.946 1.882 1.127.345 2.213.242 3.18-.478.442-.329.712-.795.895-1.297.073-.2.15-.211.325-.151.628.215 1.257.427 1.892.622.199.06.221.15.159.322-.28.777-.692 1.476-1.31 2.04-1.331 1.216-2.94 1.585-4.704 1.432-.99-.086-1.92-.363-2.742-.935-.969-.676-1.647-1.574-2.094-2.646-.535-1.285-.715-2.632-.711-4.195-.023-.968.128-2.1.474-3.203.333-1.062.881-2.003 1.705-2.784.794-.753 1.745-1.204 2.818-1.386a7.45 7.45 0 0 1 2.994.074m-19.058.276c1.408-.453 2.854-.552 4.317-.377.924.11 1.781.406 2.508 1.005.721.595 1.138 1.367 1.359 2.246.169.671.234 1.358.234 2.05l-.001 9.195c-.003.36-.003.362-.371.363-.59.001-1.181-.006-1.771.003-.198.003-.265-.067-.258-.257.011-.327.003-.654.003-.973-.149-.036-.192.06-.253.11-1.61 1.337-3.454 1.724-5.498 1.304a4.73 4.73 0 0 1-2.336-1.197 3.74 3.74 0 0 1-.991-1.504c-.412-1.181-.47-2.383-.133-3.596.308-1.108 1.013-1.902 2.014-2.464 1.726-.97 3.556-1.01 5.436-.575a6.3 6.3 0 0 1 1.374.497c.109.054.215.122.382.129.005-.783.032-1.533-.143-2.273-.248-1.055-.942-1.641-1.998-1.86-.84-.174-1.676-.122-2.506.045q-1.494.3-2.739 1.17c-.049.035-.105.063-.185.11-.105-.281-.206-.542-.301-.805-.12-.337-.223-.68-.357-1.01-.074-.186-.035-.287.136-.39a10 10 0 0 1 2.078-.946m-38.355-6.044v7.06c.144.022.178-.073.238-.128.911-.85 1.99-1.298 3.253-1.34 1.036-.035 2.027.116 2.95.598 1.246.648 2.11 1.634 2.674 2.892.727 1.62.864 3.324.763 5.061-.069 1.173-.282 2.32-.78 3.4-.737 1.603-1.914 2.714-3.693 3.143-1.02.245-2.036.263-3.053-.026a5.4 5.4 0 0 1-2.032-1.086c-.066-.056-.13-.114-.2-.166-.017-.014-.047-.012-.072-.017-.098.057-.06.152-.062.232-.005.197 0 .394-.002.59-.004.307-.005.31-.306.313-.402.003-.804 0-1.206 0-.264 0-.528-.008-.791.003-.183.007-.254-.064-.238-.238.007-.073.001-.148.001-.221 0-6.119.003-12.237-.008-18.356 0-.315.1-.487.38-.63.657-.333 1.297-.698 1.945-1.05.052-.028.101-.075.239-.034m66.166.087v10.747c.208-.05.302-.183.407-.291q1.826-1.89 3.647-3.783c.154-.16.32-.314.454-.491.189-.25.413-.348.738-.337.715.024 1.432.006 2.148.008.123 0 .249-.02.371.029-.02.146-.138.212-.221.297q-1.422 1.45-2.849 2.894c-.192.194-.379.393-.575.583-.116.111-.125.207-.045.354.33.608.641 1.226.962 1.838q1.207 2.295 2.416 4.588c.588 1.115 1.174 2.23 1.77 3.34.091.17.134.368.282.508v.147c-.804.003-1.608 0-2.412.013-.216.004-.336-.059-.435-.256-.434-.86-.887-1.71-1.333-2.564q-.705-1.346-1.407-2.693l-1.452-2.793c-.079-.152-.134-.32-.29-.462-.109.091-.228.175-.328.276-.54.549-1.071 1.106-1.616 1.65a.72.72 0 0 0-.226.556c.008 1.958.005 3.916.005 5.874-.001.374.025.406-.24.407h-.159q-.904.002-1.809 0c-.342-.001-.342-.004-.345-.351V13.569q.002-.147 0-.295c-.003-.107.029-.183.133-.24.747-.405 1.49-.816 2.234-1.224.043-.024.091-.043.175-.006M129.13 25.161c-1.098-.235-2.189-.293-3.262.111-.365.138-.714.306-1.007.566-.746.663-.904 1.508-.733 2.43a2.36 2.36 0 0 0 1.162 1.653c.798.467 1.685.555 2.586.428 1.233-.174 2.227-.788 3.05-1.687a.6.6 0 0 0 .181-.462 10 10 0 0 1-.007-.48q.003-.24.004-.48-.002-.24-.007-.48t.013-.48c.02-.25-.083-.38-.297-.49-.537-.274-1.089-.502-1.683-.63m-37.892-5.448c-1.638-.37-3.024.086-4.138 1.312-.191.211-.393.425-.39.767.014 2.09.008 4.182.005 6.272 0 .153.03.284.123.413.8 1.12 1.882 1.72 3.287 1.792 1.44.074 2.72-.733 3.314-2.09.457-1.042.569-2.132.593-3.242.008-.506-.03-1.008-.096-1.509-.117-.874-.35-1.71-.865-2.449-.45-.644-1.058-1.091-1.833-1.266" clip-rule="evenodd"></path></g></svg>