<svg width="32" height="32" viewBox="0 0 32 32" fill="none" xmlns="http://www.w3.org/2000/svg"><rect width="32" height="32" rx="2" fill="#000"></rect><g opacity=".9" fill="#fff"><path d="M12.5125 16.1345v5.2996h-.9181v-6.5826c.2419.4703.5527.9026.9223 1.283zm1.5336 1.1135v4.1861h-.9434V16.662c.2505.1943.5173.3672.7975.5169l.1417.0691zm2.5448.7954h.0402c.8314.1862 1.337.5588 1.5443 1.1407.1048.2936.1173.6117.0359.9125-.2115.8037-1.0577 1.3228-2.1154 1.3228h-1.4807v-3.9181c.4357.1611.8969.2846 1.3898.4186.1904.0481.3829.0921.569.1339zm-.5034 3.9872c1.3327 0 2.384-.6886 2.6759-1.7519.1126-.4137.0964-.8514-.0465-1.2558-.2792-.7744-.9413-1.2851-1.9715-1.5174h-.0423c-.1798-.0398-.3681-.0817-.5479-.1298-.6894-.1523-1.3587-.3827-1.9948-.6865-.7819-.4148-1.4342-1.0333-1.8865-1.7884-.4522-.7552-.6872-1.6183-.6795-2.496-.0051-.6307.1175-1.2561.3605-1.8391.2431-.58308.6017-1.11209 1.0547-1.55583.5069-.47616 1.1049-.84733 1.7587-1.09173.6539-.24441 1.3505-.35712 2.049-.33153h.7848c.0785 0 .1539-.03087.2094-.08582s.0868-.12948.0868-.2072c0-.07771-.0313-.15224-.0868-.2072-.0555-.05495-.1309-.08582-.2094-.08582h-.7827c-.7769-.02677-1.5513.10034-2.2779.37386-.7265.27353-1.3905.68795-1.9529 1.21893-.5089.49803-.9118 1.09186-1.185 1.74644-.2733.6546-.4112 1.3567-.4057 2.065v9.3202c0 .0773.0309.1516.086.2064.055.0549.1298.0861.208.0866z"></path><path d="M14.6321 12.404c.0006-.4794.1933-.939.5359-1.278.3427-.3391.8072-.5298 1.2918-.5303.484.0011.9478.1921 1.2896.5311.3419.339.5338.7984.5338 1.2772 0 1.0466-.8461 1.9654-1.8276 1.9654h-.0297c-1.0936-.2512-1.798-1.0172-1.798-1.9695zm4.6496-1.8104c.3537.5374.5419 1.165.5415 1.8063-.0032.4936-.1146.9807-.3264 1.4276-.2118.447-.519.8432-.9005 1.1614-.3267-.1395-.6624-.2577-1.0048-.3537.3888-.2331.7111-.5606.9362-.9514.225-.3908.3455-.832.35-1.2818.0004-.3427-.0738-.6814-.2176-.9931-.1439-.3117-.3539-.5891-.6159-.8132zm1.6923 0c.3551.8667.4474 1.8169.2656 2.7346-.1819.9177-.6299 1.7632-1.2894 2.4331-.248-.1846-.5096-.3504-.7827-.4961.3891-.3709.6993-.8152.9122-1.3066.2128-.4913.3242-1.0199.3274-1.5546.0006-.6282-.1525-1.2472-.4464-1.8041zm-.5711 5.5444c.7278-.7502 1.2219-1.6921 1.423-2.7128.201-1.0208.1007-2.0772-.2892-3.043-.0445-.1098-.1214-.2039-.2206-.2699-.0992-.0661-.2162-.1011-.3357-.1006h-4.5206c-.6411.0006-1.2558.2528-1.7091.7013-.4533.4486-.7082 1.0567-.7088 1.691 0 1.2559.9477 2.2794 2.3671 2.564 3.1266.5358 4.9162 2.2374 4.9162 4.657 0 2.746-2.2466 4.8139-5.225 4.8139h-1.1995c-.0408-.0034-.0819.0016-.1207.0147s-.0744.0341-.1046.0615c-.0302.0275-.0543.0608-.0708.098-.0165.0371-.025.0772-.025.1178s.0085.0807.025.1178c.0165.0372.0406.0705.0708.098.0302.0274.0658.0484.1046.0615s.0799.0181.1207.0147h1.2037c3.3148 0 5.8152-2.3233 5.8152-5.4021.009-.6534-.1214-1.3014-.3827-1.9016-.2614-.6001-.6478-1.1389-1.134-1.5812"></path><path d="M20.4071 19.6256c0-1.9277-1.3517-3.217-3.9135-3.7319-2.1154-.4019-3.3846-1.7079-3.3846-3.4891.0006-.4251.0872-.8457.2547-1.2372.1675-.3914.4125-.7458.7205-1.0421.3621-.34702.791-.6185 1.2612-.79828.4703-.17978.9722-.26419 1.4761-.24821h2.9108c.0389 0 .0774-.00758.1133-.02231s.0686-.03631.0961-.06352.0493-.05951.0642-.09506.0225-.07366.0225-.11214-.0076-.07658-.0225-.11213-.0367-.06786-.0642-.09507-.0602-.04879-.0961-.06352c-.0359-.01472-.0744-.0223-.1133-.0223h-2.9129c-.581-.01537-1.1594.08387-1.7012.29193-.5419.20806-1.0365.52078-1.455.91993-.3638.35068-.6531.76988-.8507 1.23288-.1976.4629-.2996.9604-.3 1.4629 0 2.0931 1.4469 3.6042 3.8669 4.0626 2.2804.4584 3.4375 1.5216 3.4375 3.1584 0 1.8837-1.5971 3.3195-3.7125 3.3195h-3.3c-.0786 0-.1539.0309-.2094.0858-.0556.055-.0868.1295-.0868.2072s.0312.1523.0868.2072c.0555.055.1308.0858.2094.0858h3.3c2.4538 0 4.3027-1.6744 4.3027-3.9055"></path></g></svg>